<svg width="431" height="429" viewBox="0 0 431 429" fill="none" xmlns="http://www.w3.org/2000/svg">
<path d="M214.7 349.7C217 353.5 209.1 368.2 207.9 374.9C206.8 381.7 201.9 404.7 198.5 407.3C195.1 409.9 194 404.7 194 404.7C194 404.7 193.6 401.3 191.4 396.4C189.2 391.5 185 394.9 189.2 390.4C193.3 385.9 193 389.3 194.5 383.6C196 378 193 379.1 196 375.3C199 371.5 194.9 374.2 200.1 371.2C205.4 368.2 206.1 368.6 207.3 365.9C208.4 363.3 208.4 366.3 208.8 361C209.1 355.7 212.5 345.9 214.7 349.7Z" fill="#E9ECE0"/>
<path d="M26.0002 314.7C29.0002 319.2 30.1002 320.4 28.3002 321.1C26.4002 321.9 25.3002 320.3 22.6002 320.7C20.0002 321.1 12.4002 304.1 20.0002 306C20.0002 306 23.8002 304.1 25.3002 308.6C26.8002 313.2 23.0002 310.1 26.0002 314.7Z" fill="#E9ECE0"/>
<path d="M49.4003 125.2C49.0003 123.3 49.0003 123.7 50.2003 117.3C51.3003 110.9 53.2003 114.7 54.7003 113.2C56.2003 111.7 55.8003 112.8 58.8003 113.2C61.8003 113.6 61.1003 113.6 63.3003 110.9C65.6003 108.3 65.6003 107.1 68.6003 105.2C71.6003 103.3 70.5003 105.2 71.6003 107.8C72.7003 110.4 67.8003 113.1 64.1003 115.3C60.3003 117.6 64.5003 118.7 66.0003 122.8C67.5003 126.9 65.6003 126.6 62.2003 131.5C58.8003 136.4 53.5003 140.9 53.5003 140.9C50.1003 145 50.1003 144.7 48.6003 143.5C47.1003 142.4 46.0003 139 44.5003 136C43.0003 133 43.7003 131.9 47.5003 130C51.3003 128.3 49.8003 127.1 49.4003 125.2Z" fill="#E9ECE0"/>
<path d="M184.6 362.5C181.2 362.5 178.6 363.3 176.3 361.4C174 359.5 172.9 356.1 165.4 356.9C157.9 357.7 153.3 361.4 151.1 357.7C148.8 353.9 160.5 345.3 153 343C145.5 340.7 147 339.6 143.6 340.4C140.2 341.2 139.5 341.2 139.5 342.7C139.5 344.2 136.1 341.9 136.9 335.9C137.7 329.9 138 334 137.7 329.9C137.3 325.8 135.1 325.8 134.7 323.9C134.3 322 133.9 322.8 132.1 321.6C130.2 320.5 129.1 320.1 128.7 318.2C128.3 316.3 129.1 317.4 129.5 312.5C129.9 307.6 131 306.9 128 305.7C125 304.6 122.7 301.2 124.2 299.3C125.7 297.4 127.2 295.9 131.4 297.4C131.4 297.4 138.9 304.6 141.2 301.5C143.5 298.5 146.9 295.9 152.1 294C157.4 292.1 161.1 292.9 164.9 292.5C168.7 292.1 169.4 293.6 172 295.5C174.6 297.4 178.4 291 182.2 295.9C186 300.8 181.4 300.4 183 304.9C184.5 309.4 184.1 314.7 187.2 310.5C190.2 306.4 190.2 307.1 190.2 302.6C190.2 298.1 185.7 298.5 190.2 298.1C194.7 297.7 193.2 290.2 198.1 294.7C203 299.2 205.3 300.7 204.5 305.6C203.7 310.5 198.1 309.4 200.4 314.6C202.7 319.9 203 317.6 205.7 321.4C208.3 325.2 208.7 324.8 208 329.7C207.2 334.6 206.5 349.7 203.1 353.8C199.7 357.9 199.7 356.8 196.3 357.6C192.9 358.4 191.4 357.6 189.9 359.5C188 361.4 188 362.5 184.6 362.5Z" fill="#E9ECE0"/>
<path d="M334.5 374.9C332.2 375.7 332.2 374.9 325.8 375.3C319.4 375.7 322.4 377.6 320.9 380.6C319.4 383.6 318.3 383.6 310.7 385.5C303.2 387.4 306.2 383.2 306.2 383.2C306.2 383.2 306.6 376.4 308.1 376C309.6 375.6 311.5 375.6 313.7 375.6C316 375.6 316.3 374.8 317.8 371.8C319.3 368.8 320.4 366.9 323.8 364.3C327.2 361.7 327.2 363.2 334 366.9C340.9 370.8 336.7 374.2 334.5 374.9Z" fill="#E9ECE0"/>
<path d="M342.4 265.7C345 268 342 275.9 337.9 278.9C333.7 281.9 336 280 333 284.5C330 289 324 291.3 321.7 292.4C319.4 293.5 319.1 294.3 314.2 298.8C314 299 313.8 299.2 313.6 299.4C309.6 303.4 312.4 304.6 313.1 308.2C313.9 312 319.1 314.6 324.4 315.7C329.7 316.8 329.3 315.7 331.9 319.5C334.5 323.3 329.3 328.2 323.6 328.9C317.9 329.7 317.6 325.5 311.9 327C306.2 328.5 310.8 337.9 304.4 343.6C303.4 344.5 302.7 345.2 302.2 345.7C299.3 348.8 302.3 347.7 301 349.3C299.5 351.2 302.9 353.8 305.9 357.2C308.9 360.6 309.7 362.1 309.3 367C308.9 371.9 306.3 370.4 299.1 371.9C291.9 373.4 279.5 370 277.3 368.1C275 366.2 284.4 365.8 282.9 362.5C281.4 359.1 276.1 355.7 277.3 353.8C278.4 351.9 279.6 348.9 278.8 346.6C278 344.3 277.3 344 272.8 342.1C268.3 340.2 270.5 343.2 267.2 344.4C264.5 345.3 264.2 345.2 260.2 343.7C259.2 343.3 257.9 342.8 256.3 342.2C248.4 339.2 245 343 245 343C235.2 344.1 237.1 337 240.5 335.1C243.9 333.2 240.5 331.7 239.4 329.1C238.3 326.5 239 327.2 237.5 321.6C236 315.9 237.5 319 238.3 317.1C239.1 315.2 240.2 313.7 240.2 311.8C240.2 309.9 235.7 305.8 231.9 303.9C228.1 302 230.8 298.2 233.8 296C236.8 293.7 233 290 230.8 286.6C228.5 283.2 225.2 283.2 225.2 281C225.2 278.7 226 277.6 224.1 274.6C222.2 271.6 210.5 270.8 213.9 266.7C217.3 262.6 219.2 269.3 220.7 269.3C222.2 269.3 221.8 273.5 225.6 270.8C229.4 268.2 227.5 270.4 229.4 271.6C231.3 272.7 232 276.5 233.9 276.9C235.8 277.3 236.9 276.1 239.5 274.3C242.1 272.4 241.4 272.4 244.4 271.7C247.4 270.9 248.5 270.2 248.9 264.9C249.3 259.6 251.9 258.1 253.8 257C255.7 255.9 254.6 255.9 258.7 253.2C262.8 250.6 262.8 249.8 260.6 245.7C258.3 241.6 251.6 247.2 246.3 245.3C241 243.4 256.8 243 259.1 241.2C261.4 239.3 262.1 241.6 266.6 241.6C271.1 241.6 272.6 240.8 276.4 242C280.2 243.1 279.4 243.9 279 246.5C278.6 249.1 277.5 247.3 273.3 249.1C269.2 251 273.3 252.5 274.8 254.7C276.3 257 274.4 257.3 271.8 260.4C269.2 263.4 270.7 263.8 271.8 264.2C272.9 264.6 273.7 266.1 277.1 267.2C280.5 268.3 279.7 268.3 279.7 271.7C279.7 272.9 279.8 274.1 280 275.3C280.4 277.4 281.3 279.1 283.1 278.9C285.7 278.5 284.6 271.4 287.2 268.4C289.8 265.4 286.4 264.3 286.1 259.4C285.7 254.5 284.2 255.2 290.2 251.9C296.2 248.5 292.8 251.9 297 254.9C301.1 257.9 297 265.4 298.1 267.3C299.2 269.2 298.5 269.5 295.1 270.7C291.7 271.8 293.6 273.3 292.5 276.4C291.4 279.4 293.3 281.7 296.6 282C297.6 282.1 298.3 282.2 298.8 282.1C300 282.1 300.5 281.7 302.6 281.2C305.6 280.4 306.7 273.4 304.2 270.7L304.1 270.6C301.5 268 301.5 263.8 300.7 261.2C299.9 258.6 301.5 252.2 301.1 249.1C300.7 246.1 298.8 246.5 293.2 243.8C287.5 241.2 292.1 239.3 293.6 235.1C295.1 231 294.7 231.7 301.5 227.9C308.3 224.1 310.5 225.6 317.7 224.5C324.9 223.4 326 223 330.9 224.1C335.8 225.2 335 225.2 341.1 230.1C347.1 235 343.4 234.6 341.1 238.8C338.8 242.9 341.5 245.2 339.2 251.2C336.9 257.2 338.8 255.3 339.2 258C339.3 258.5 339.3 259.1 339.4 259.6C339.6 261.6 340.3 263.9 342.4 265.7Z" fill="#E9ECE0"/>
<path d="M284 405.4C282.9 411.4 284.8 410.7 282.1 414.1C279.5 417.5 276.8 419.4 274.2 418.6C271.6 417.8 264.8 417.1 261.4 419C258 420.9 259.1 423.5 254.2 420.1C249.3 416.7 248.9 416 246.7 414.5C244.4 413 241.1 411.1 241.1 411.1C241.1 411.1 235.5 409.6 231.3 409.6C227.2 409.6 226.4 406.6 224.5 404.3C222.6 402 224.5 401.7 220.4 400.2C216.3 398.7 217.4 393.8 218.5 391.5C219.6 389.3 221.5 390.4 224.5 389.6C227.5 388.8 224.5 384 223.4 381.7C222.3 379.4 219.3 379.1 224.2 374.2C229.1 369.3 228.7 368.9 234 368.2C239.3 367.4 241.5 367.1 246.4 371.2C251.3 375.3 253.9 380.6 255.1 385.1C256.2 389.6 257.4 391.1 259.2 391.9C261 392.7 265.2 391.9 265.2 391.9L267.1 390C267.1 390 270.5 383.6 272.7 387.4C275 391.2 271.9 389.7 275.3 394.6C278.7 399.5 278.3 398.4 280.2 400.2C282.1 402 285.1 399.4 284 405.4Z" fill="#E9ECE0"/>
<path d="M124.7 382.1C125.1 385.9 125.8 384.4 122.1 385.9C118.3 387.4 118 387.4 118.7 388.9C119.5 390.4 116.8 394.6 114.2 390.8C111.6 387 108.6 381 105.5 383.7C102.5 386.3 102.9 386 101.7 387.8C100.6 389.7 100.2 390.4 98.3001 390.8C96.4001 391.2 91.9001 391.2 87.4001 390.4C82.9001 389.6 81.0001 388.5 78.4001 385.5C75.8001 382.5 77.3001 381.4 72.8001 380.6C68.3001 379.8 69.8001 381 64.1001 380.2C58.5001 379.4 56.2001 373 50.5001 374.5C44.9001 376 46.4001 379.8 41.1001 377.5C41.1001 377.5 44.1001 375.6 41.9001 370.3C39.6001 365 36.6001 369.5 38.1001 362.8C39.6001 356 38.9001 357.5 40.7001 353C42.6001 348.5 41.5001 347.3 42.2001 341.7C42.4001 340 42.6001 339.3 42.8001 339C43.2001 338.2 43.2001 339.4 42.2001 334.2C40.7001 326.7 44.5001 318.4 43.0001 310.1C41.5001 301.8 36.2001 301.4 31.3001 301.4C26.4001 301.4 23.0001 298 20.7001 296.5C18.4001 295 18.1001 295.4 16.9001 296.9C15.8001 298.4 16.5001 304.4 12.8001 303.3C9.00013 302.2 5.30013 296.2 5.30013 287.5C5.30013 278.8 5.70013 282.2 9.10013 272.4C12.5001 262.6 9.10013 264.9 9.50013 260.7C9.60013 259.6 10.8001 258.5 12.5001 257.4C17.2001 254.3 25.8001 250.8 26.1001 245.3C26.5001 237.8 20.5001 223.5 15.2001 223.5C9.90012 223.5 11.8001 226.1 5.80013 224.6C-0.19987 223.1 -0.19987 211 1.30013 204.3C2.80013 197.5 3.90013 187 9.60013 186.6C15.3001 186.2 19.4001 193.4 20.5001 190C21.6001 186.6 23.1001 184.4 21.6001 181.3C20.1001 178.3 15.6001 179.4 14.1001 178.7C12.6001 177.9 11.5001 177.2 11.8001 174.6C12.2001 172 11.0001 154.6 16.7001 150.1C22.3001 145.6 28.8001 149 35.1001 154.3C41.5001 159.6 40.4001 156.9 45.7001 164.5C51.0001 172 52.1001 172.8 54.4001 164.5C54.7001 163.3 54.8001 162.4 54.8001 161.5C54.6001 156.4 49.3001 156.6 54.8001 152.4C61.2001 147.5 67.2001 148.3 68.4001 142.6C69.5001 136.9 66.9001 136.2 70.3001 133.6C73.7001 131 69.9001 127.6 77.1001 128.3C84.3001 129.1 89.9001 129.1 86.1001 138.5C82.3001 147.9 78.2001 149.8 78.9001 153.6C79.7001 157.4 83.4001 158.1 85.3001 157.8C87.2001 157.4 88.3001 150.6 90.9001 154.8C93.5001 158.9 93.5001 158.9 96.2001 161.2C98.8001 163.4 101.9 166.5 104.1 163.8C106.4 161.2 109 156.7 108.6 154.4C108.2 152.1 107.8 150.6 104.8 152.5C101.8 154.4 98.4001 154.4 98.0001 151.7C97.6001 149.1 97.6001 146.1 97.2001 144.9C96.8001 143.8 96.4001 143.8 94.6001 144.1C94.3001 144.2 94.0001 144.2 93.7001 144.3C92.4001 144.6 91.6001 144.9 91.6001 144.9C91.6001 144.9 87.5001 142.6 92.0001 138.1C96.5001 133.6 97.7001 133.2 96.9001 132.1C96.1001 131 95.0001 129.1 92.4001 128.7C89.8001 128.3 88.6001 125.7 88.6001 125.7C88.6001 125.7 98.8001 120.4 95.4001 118.2C92.0001 115.9 87.1001 119.7 88.2001 115.6C88.2001 115.6 89.3001 104.7 98.0001 102.4C106.7 100.1 114.6 100.9 116.1 104.7C117.6 108.5 118 111.9 120.6 110C123.2 108.1 124.4 99.5 126.3 98C128.2 96.5 132.3 99.9 139.9 97.2C143.8 95.8 142.8 92.7 141.5 89.9C140.5 92.2 140.1 94.3 137.5 93.8C133.4 93.1 126.6 91.1 126.6 91.1L111.6 97.3C111.6 97.3 106.1 100 98.6001 99.4C91.1001 98.7 92.4001 97.3 89.0001 97.3C86.6001 97.3 86.2001 97.6 83.8001 98.1C82.8001 98.3 81.4001 98.5 79.4001 98.7C72.6001 99.4 72.6001 100.1 68.5001 101.4C64.4001 102.8 67.1001 100.7 62.3001 102.8C57.5001 104.9 57.5001 100.1 54.1001 104.9C50.7001 109.7 50.0001 113.1 47.3001 115.8C44.6001 118.5 40.5001 118.5 38.4001 122.6C36.4001 126.7 35.7001 128.8 36.4001 130.8C37.8001 134.9 32.3001 131.5 37.1001 137C41.9001 142.5 42.6001 139.7 41.2001 143.8C39.8001 147.9 42.6001 147.2 41.2001 150C39.8001 152.7 39.8001 154.8 35.7001 150.7C31.6001 146.6 32.3001 140.4 27.5001 142.5C22.7001 144.6 24.1001 136.4 22.7001 134.3C21.3001 132.2 20.0001 127.5 17.9001 130.9C15.9001 134.3 17.2001 137.7 15.9001 134.3C14.5001 130.9 19.3001 124.7 25.5001 112.4C31.6001 100.1 27.6001 100.1 31.0001 91.2C34.4001 82.3 59.7001 84.4 65.9001 86.4C69.9001 87.7 73.0001 84.7 76.4001 82.1C78.2001 80.7 80.1001 79.4 82.3001 78.9C88.5001 77.5 85.7001 81.6 93.9001 80.9C102.1 80.2 123.3 68.6 121.9 54.3C120.5 39.9 132.8 28.3 144.4 22.9C156 17.4 161.5 25 167.6 22.9C173.8 20.9 188.1 3.09998 194.9 0.999983C201.7 -1.10002 203.1 2.99998 195.6 7.09998C195.6 7.09998 180.6 13.3 181.9 24.9C183.3 36.5 186.7 37.2 186 46.1C185.3 55 180.5 60.4 185.3 66.6C190.1 72.8 191.5 74.1 188 80.3C184.6 86.5 177.8 91.2 177.8 97.4C177.8 103.6 168.2 105.6 162.8 97.4C157.3 89.2 158.7 84.4 153.2 84.4C147.7 84.4 148.4 83.7 144.3 86.4C144.2 86.5 144.1 86.5 144 86.6C145.7 89 147.4 92.7 149.7 95C153.5 98.8 166.6 104.4 170.8 110.8C174.9 117.2 170 122.8 172.7 131.5C175.3 140.2 168.2 136.4 165.2 139.4C162.2 142.4 160.7 140.5 165.6 144.7C170.5 148.8 172.8 149.2 172.4 151.1C172 153 166.4 154.9 170.5 155.2C174.6 155.6 172.4 166.5 180.3 168C188.2 169.5 188.2 165 198 167.2C207.8 169.5 212.3 171.3 213.8 179.6C215.3 187.9 199.9 199.6 200.6 206.3C201.4 213.1 201.4 211.9 202.5 216.1C203.6 220.2 198 222.9 195 219.1C192 215.3 194.6 209.7 191.6 208.9C188.6 208.1 187.5 208.5 186.3 211.9C185.2 215.3 182.5 213.8 183.3 216.4C184.1 219 191.6 218.7 185.6 220.2C179.6 221.7 183 213 181.8 211.2C180.7 209.3 178.8 210.1 176.9 210.1C175 210.1 189 202.6 183.3 198.4C177.7 194.2 177.3 192.7 173.9 195.8C170.5 198.8 171.6 199.2 170.9 203C170.1 206.8 170.5 210.1 172 215.1C173.5 220 167.9 227.2 167.9 234.7C167.9 242.2 167.5 243.4 164.5 247.5C161.5 251.6 158.9 254.7 158.9 254.7C158.9 254.7 155.9 256.6 151 256.6C149.5 256.6 148 256.1 146.6 255.5C143.4 254.2 140.4 252.3 138.6 254.7C136 258.1 134.8 260.7 136 263.4C137.1 266 145 273.2 141.6 276.6C138.2 280 135.6 281.9 130.7 280C125.8 278.1 123.9 274.4 121.7 277.4C119.4 280.4 119.1 283.4 119.1 283.4C119.1 283.4 123.6 281.1 126.3 282.6C128.9 284.1 129.7 284.1 131.6 284.8C133.5 285.6 126.3 293.1 126.3 293.1L121.4 295.4C121.4 295.4 116.5 294.6 113.9 297.7C111.3 300.7 106.4 299.2 109 301.8C111.6 304.4 120.7 301 118.4 305.6C116.7 309 113.6 314.6 114.3 319.3C114.5 320.9 115.2 322.4 116.6 323.7C121.9 328.6 123 327.8 123.4 335C123.8 342.2 116.2 340.6 113.2 344.4C110.2 348.2 108.7 345.2 106.8 348.5C104.9 351.9 102.7 350.8 104.9 353.8C107.2 356.8 111.3 354.9 108.3 358.3C105.3 361.7 95.1001 362.4 99.3001 363.6C103.5 364.7 106.1 362.1 112.1 365.9C118.1 369.7 121.9 368.2 123.4 373.8C124.3 379.1 124.3 378.3 124.7 382.1Z" fill="#E9ECE0"/>
<path d="M176.7 381.7C183.1 390 184.2 389.6 182 391.5C179.7 393.4 177.9 392.3 176 393.4C174.1 394.5 168.1 391.9 166.6 386.6C165.1 381.3 166.6 381.7 163.2 380.2C159.8 378.7 158.3 372.3 161.7 372.7C161.7 372.7 164.7 374.2 167.7 378.3C170.7 382.4 169.6 384.3 172.2 383.2C174.8 382.1 170.3 373.4 176.7 381.7Z" fill="#E9ECE0"/>
<path d="M174.4 267.2C176.7 258.9 171.8 258.2 175.2 257.4C178.6 256.6 182.4 258.9 179.7 254.8C177.1 250.7 173.3 241.6 177.1 242C177.1 242 183.1 248 185 253.7C186.9 259.4 189.5 257.9 186.5 264.3C183.5 270.7 183.5 270.7 181.2 272.2C178.9 273.6 172.2 275.5 174.4 267.2Z" fill="#E9ECE0"/>
<path d="M308.1 393.4C306.6 399.8 305.1 398.7 300.9 402.4C296.8 406.2 294.5 406.2 295.3 410.3C296.1 414.4 296.4 417.5 296.4 419C296.4 420.5 300.2 420.1 296.4 423.5C292.6 426.9 290 428.4 290 428.4C290 428.4 288.1 425.4 288.1 417.5C288.1 409.6 288.5 407.3 288.5 403.9C288.5 400.5 286.2 400.9 285.9 399C285.5 397.1 286.3 395.6 284.8 394.1C283.3 392.6 281.4 383.2 277.6 383.2C273.8 383.2 277.2 378.7 277.2 378.7C277.2 378.7 280.6 373.4 285.5 376.4C290.4 379.4 289.3 381.3 291.9 382.1C294.5 382.9 291.9 379.8 296.4 383.6C300.9 387.4 299.8 385.5 302.8 389.2C305.9 393 309.6 387 308.1 393.4Z" fill="#E9ECE0"/>
<path d="M146.9 370.8C149.2 374.6 151 376.4 149.5 379.5C148 382.5 147.2 384.4 143.1 384.8C139 385.2 135.9 384 135.9 384C135.9 384 133.6 377.6 132.5 376.9C131.4 376.1 130.2 376.9 129.9 375.8C129.5 374.7 131 374.3 129.9 370.9C128.8 367.5 128.8 367.5 125.8 366.8C122.8 366 122.8 367.6 121.7 364.5C120.6 361.4 124.7 353.2 127.7 356.2C127.7 356.2 130.3 366.7 136.7 367.9C143.2 368.9 144.7 367 146.9 370.8Z" fill="#E9ECE0"/>
<path d="M241.856 377.43C242.486 377.43 243.377 377.283 243.914 377.674C244.313 377.965 244.594 378.533 244.825 378.955C245.132 379.517 244.432 381.144 243.914 381.5C242.872 382.216 242 382 241 382C239.992 382.026 239.16 381.522 238.625 380.616C237.451 378.629 240.054 377.268 241.693 377.268" stroke="#5B6460" stroke-linecap="round" stroke-linejoin="round"/>
<path d="M335.856 266.43C336.486 266.43 337.377 266.283 337.914 266.674C338.313 266.965 338.594 267.533 338.825 267.955C339.132 268.517 338.432 270.144 337.914 270.5C336.872 271.216 336 271 335 271C333.992 271.026 333.16 270.522 332.625 269.616C331.451 267.629 334.054 266.268 335.693 266.268" stroke="#5B6460" stroke-linecap="round" stroke-linejoin="round"/>
<path d="M187.288 346.512C187.432 346.128 187.768 345.936 188.296 345.936C188.456 345.936 188.6 345.968 188.728 346.032C189.272 347.232 189.896 348.92 190.6 351.096C191.304 353.272 192.016 355.304 192.736 357.192C193.472 359.08 194.288 360.672 195.184 361.968C196.064 361.712 197.008 359.704 198.016 355.944C198.432 354.392 198.856 352.848 199.288 351.312C199.72 349.776 200.208 348.48 200.752 347.424C201.296 346.368 201.856 345.84 202.432 345.84C202.656 345.84 202.896 345.904 203.152 346.032C202.736 346.432 202.296 347.32 201.832 348.696C201.368 350.072 200.912 351.576 200.464 353.208C200.016 354.824 199.536 356.432 199.024 358.032C198.528 359.616 197.928 360.936 197.224 361.992C196.536 363.048 195.8 363.576 195.016 363.576C193.928 363.576 192.68 361.736 191.272 358.056C190.52 356.136 189.952 354.624 189.568 353.52C189.184 352.4 188.736 351.048 188.224 349.464C187.728 347.864 187.416 346.88 187.288 346.512ZM204.57 358.128C204.538 358.448 204.522 358.664 204.522 358.776C204.522 359.736 204.81 360.48 205.386 361.008C205.978 361.536 206.674 361.8 207.474 361.8C208.274 361.8 208.922 361.688 209.418 361.464C209.93 361.24 210.298 361 210.522 360.744C211.098 360.024 211.626 359.664 212.106 359.664C212.282 359.664 212.49 359.712 212.73 359.808C212.57 360.592 211.962 361.312 210.906 361.968C209.866 362.608 208.554 362.928 206.97 362.928C205.85 362.928 204.882 362.576 204.066 361.872C203.266 361.152 202.866 360.176 202.866 358.944C202.866 357.712 203.106 356.52 203.586 355.368C204.082 354.2 204.786 353.208 205.698 352.392C206.626 351.56 207.562 351.144 208.506 351.144C209.466 351.144 210.234 351.344 210.81 351.744C211.402 352.128 211.698 352.696 211.698 353.448C211.698 354.84 211.074 355.992 209.826 356.904C208.594 357.8 207.282 358.248 205.89 358.248C205.522 358.248 205.082 358.208 204.57 358.128ZM206.394 357.336C207.146 357.336 207.818 357.096 208.41 356.616C209.002 356.136 209.418 355.632 209.658 355.104C209.914 354.576 210.042 354.096 210.042 353.664C210.042 353.232 209.874 352.856 209.538 352.536C209.202 352.2 208.81 352.032 208.362 352.032C207.562 352.032 206.818 352.584 206.13 353.688C205.458 354.792 204.978 355.936 204.69 357.12C205.394 357.264 205.962 357.336 206.394 357.336ZM220.713 353.4C220.569 353.032 220.297 352.744 219.897 352.536C219.497 352.328 219.001 352.224 218.409 352.224C217.817 352.224 217.257 352.4 216.729 352.752C216.217 353.104 215.961 353.576 215.961 354.168C215.961 354.76 216.201 355.232 216.681 355.584C217.177 355.92 217.769 356.176 218.457 356.352C219.161 356.528 219.865 356.72 220.569 356.928C221.273 357.12 221.865 357.448 222.345 357.912C222.841 358.36 223.089 358.952 223.089 359.688C223.089 360.76 222.641 361.576 221.745 362.136C220.865 362.696 219.801 362.976 218.553 362.976C217.817 362.976 216.849 362.776 215.649 362.376C214.465 361.976 213.873 361.496 213.873 360.936C213.873 360.52 214.225 360.312 214.929 360.312C215.137 360.312 215.409 360.44 215.745 360.696C216.769 361.448 217.817 361.824 218.889 361.824C219.465 361.824 219.961 361.728 220.377 361.536C221.145 361.168 221.529 360.576 221.529 359.76C221.529 359.264 221.281 358.864 220.785 358.56C220.305 358.256 219.713 358.016 219.009 357.84C218.321 357.664 217.625 357.472 216.921 357.264C216.217 357.056 215.617 356.712 215.121 356.232C214.641 355.736 214.401 355.112 214.401 354.36C214.401 353.384 214.841 352.592 215.721 351.984C216.601 351.376 217.689 351.072 218.985 351.072C219.865 351.072 220.657 351.304 221.361 351.768C222.081 352.216 222.441 352.872 222.441 353.736C222.441 354.312 222.113 354.6 221.457 354.6C221.185 354.6 221.001 354.552 220.905 354.456C220.825 354.36 220.777 354.192 220.761 353.952C220.761 353.696 220.745 353.512 220.713 353.4ZM225.167 352.944C224.447 352.944 223.959 352.768 223.703 352.416C223.703 352.16 223.807 351.96 224.015 351.816C224.239 351.672 224.479 351.584 224.735 351.552C224.991 351.504 225.407 351.464 225.983 351.432C226.031 351 226.055 350.448 226.055 349.776C226.071 349.088 226.087 348.504 226.103 348.024C226.151 346.76 226.343 345.984 226.679 345.696C226.823 345.568 226.975 345.504 227.135 345.504C227.311 345.504 227.463 345.52 227.591 345.552C227.639 346.704 227.663 347.4 227.663 347.64L227.519 351.24C227.551 351.256 227.639 351.264 227.783 351.264L229.511 351.192C230.759 351.192 231.383 351.384 231.383 351.768C231.383 352.312 231.159 352.632 230.711 352.728C230.503 352.776 230.255 352.8 229.967 352.8C229.695 352.8 229.335 352.768 228.887 352.704C228.455 352.624 228.143 352.584 227.951 352.584C227.759 352.584 227.631 352.592 227.567 352.608C227.519 353.072 227.495 353.536 227.495 354C227.495 354.448 227.503 355.016 227.519 355.704C227.551 356.376 227.615 357.184 227.711 358.128C227.823 359.072 228.055 359.888 228.407 360.576C228.759 361.248 229.207 361.584 229.751 361.584C230.023 361.584 230.343 361.48 230.711 361.272C231.079 361.048 231.359 360.936 231.551 360.936C231.759 360.936 231.935 360.984 232.079 361.08C232.239 361.16 232.319 361.256 232.319 361.368C232.319 361.704 231.975 362.032 231.287 362.352C230.615 362.656 230.039 362.808 229.559 362.808C227.799 362.808 226.703 361.144 226.271 357.816C226.143 356.856 226.047 355.208 225.983 352.872C225.727 352.92 225.455 352.944 225.167 352.944ZM234.968 358.128C234.936 358.448 234.92 358.664 234.92 358.776C234.92 359.736 235.208 360.48 235.784 361.008C236.376 361.536 237.072 361.8 237.872 361.8C238.672 361.8 239.32 361.688 239.816 361.464C240.328 361.24 240.696 361 240.92 360.744C241.496 360.024 242.024 359.664 242.504 359.664C242.68 359.664 242.888 359.712 243.128 359.808C242.968 360.592 242.36 361.312 241.304 361.968C240.264 362.608 238.952 362.928 237.368 362.928C236.248 362.928 235.28 362.576 234.464 361.872C233.664 361.152 233.264 360.176 233.264 358.944C233.264 357.712 233.504 356.52 233.984 355.368C234.48 354.2 235.184 353.208 236.096 352.392C237.024 351.56 237.96 351.144 238.904 351.144C239.864 351.144 240.632 351.344 241.208 351.744C241.8 352.128 242.096 352.696 242.096 353.448C242.096 354.84 241.472 355.992 240.224 356.904C238.992 357.8 237.68 358.248 236.288 358.248C235.92 358.248 235.48 358.208 234.968 358.128ZM236.792 357.336C237.544 357.336 238.216 357.096 238.808 356.616C239.4 356.136 239.816 355.632 240.056 355.104C240.312 354.576 240.44 354.096 240.44 353.664C240.44 353.232 240.272 352.856 239.936 352.536C239.6 352.2 239.208 352.032 238.76 352.032C237.96 352.032 237.216 352.584 236.528 353.688C235.856 354.792 235.376 355.936 235.088 357.12C235.792 357.264 236.36 357.336 236.792 357.336ZM247.44 360.648L247.512 362.016C247.512 362.368 247.408 362.616 247.2 362.76C247.008 362.888 246.808 362.952 246.6 362.952C246.408 362.952 246.208 362.92 246 362.856C245.648 361 245.376 358.688 245.184 355.92C245.008 353.152 244.904 351.584 244.872 351.216C245.112 350.992 245.36 350.88 245.616 350.88C245.888 350.88 246.128 350.912 246.336 350.976C246.4 351.44 246.448 352.464 246.48 354.048C246.512 355.632 246.552 356.624 246.6 357.024C246.824 355.68 247.224 354.424 247.8 353.256C248.12 352.6 248.536 352.08 249.048 351.696C249.576 351.296 250.136 351.096 250.728 351.096C251.336 351.096 251.888 351.368 252.384 351.912C252.896 352.44 253.152 352.92 253.152 353.352C253.152 353.512 253.056 353.64 252.864 353.736C252.672 353.816 252.456 353.856 252.216 353.856C251.992 353.856 251.816 353.768 251.688 353.592C251.56 353.416 251.472 353.224 251.424 353.016C251.376 352.792 251.272 352.592 251.112 352.416C250.952 352.24 250.736 352.152 250.464 352.152C249.744 352.152 249.128 352.8 248.616 354.096C247.832 356.032 247.44 358.216 247.44 360.648ZM254.938 345.744C255.13 345.392 255.482 345.216 255.994 345.216C256.106 345.216 256.218 345.232 256.33 345.264C256.362 346.112 256.378 348.48 256.378 352.368C256.394 352.352 256.466 352.28 256.594 352.152C256.738 352.024 256.826 351.944 256.858 351.912C256.89 351.88 256.97 351.808 257.098 351.696C257.226 351.568 257.322 351.488 257.386 351.456C257.466 351.408 257.57 351.344 257.698 351.264C257.826 351.168 257.938 351.104 258.034 351.072C258.13 351.024 258.242 350.976 258.37 350.928C258.61 350.848 258.89 350.808 259.21 350.808C260.394 350.808 261.346 351.304 262.066 352.296C262.786 353.272 263.146 354.368 263.146 355.584C263.146 356.8 262.962 357.96 262.594 359.064C262.226 360.152 261.658 361.104 260.89 361.92C260.122 362.736 259.226 363.144 258.202 363.144C257.194 363.144 256.346 362.768 255.658 362.016C254.986 361.264 254.65 360.408 254.65 359.448C254.65 358.472 254.706 356.68 254.818 354.072C254.93 351.448 254.986 349.568 254.986 348.432C254.986 347.28 254.97 346.384 254.938 345.744ZM258.37 361.968C258.994 361.968 259.554 361.672 260.05 361.08C261.058 359.912 261.562 358.256 261.562 356.112C261.562 354.96 261.338 353.944 260.89 353.064C260.442 352.168 259.81 351.72 258.994 351.72C258.53 351.72 258.122 351.952 257.77 352.416C257.418 352.864 257.146 353.464 256.954 354.216C256.586 355.64 256.402 357.224 256.402 358.968C256.402 360.44 256.706 361.344 257.314 361.68C257.586 361.84 257.938 361.936 258.37 361.968ZM266.318 353.04C267.134 351.792 268.31 351.168 269.846 351.168C271.382 351.168 272.606 351.792 273.518 353.04C274.446 354.288 274.91 355.712 274.91 357.312C274.91 358.896 274.406 360.24 273.398 361.344C272.39 362.448 271.11 363 269.558 363C268.006 363 266.878 362.568 266.174 361.704C265.47 360.824 265.118 359.592 265.118 358.008C265.118 355.944 265.518 354.288 266.318 353.04ZM267.374 354.312C267.166 354.936 267.006 355.56 266.894 356.184C266.798 356.808 266.75 357.392 266.75 357.936C266.75 358.464 266.79 358.952 266.87 359.4C266.95 359.832 267.086 360.264 267.278 360.696C267.47 361.112 267.758 361.448 268.142 361.704C268.526 361.944 268.982 362.064 269.51 362.064C270.582 362.064 271.478 361.624 272.198 360.744C272.934 359.864 273.302 358.8 273.302 357.552C273.302 356.304 272.966 355.096 272.294 353.928C271.638 352.744 270.83 352.152 269.87 352.152C269.294 352.152 268.79 352.352 268.358 352.752C267.926 353.152 267.598 353.672 267.374 354.312ZM279.62 360.648L279.692 362.016C279.692 362.368 279.588 362.616 279.38 362.76C279.188 362.888 278.988 362.952 278.78 362.952C278.588 362.952 278.388 362.92 278.18 362.856C277.828 361 277.556 358.688 277.364 355.92C277.188 353.152 277.084 351.584 277.052 351.216C277.292 350.992 277.54 350.88 277.796 350.88C278.068 350.88 278.308 350.912 278.516 350.976C278.58 351.44 278.628 352.464 278.66 354.048C278.692 355.632 278.732 356.624 278.78 357.024C279.004 355.68 279.404 354.424 279.98 353.256C280.3 352.6 280.716 352.08 281.228 351.696C281.756 351.296 282.316 351.096 282.908 351.096C283.516 351.096 284.068 351.368 284.564 351.912C285.076 352.44 285.332 352.92 285.332 353.352C285.332 353.512 285.236 353.64 285.044 353.736C284.852 353.816 284.636 353.856 284.396 353.856C284.172 353.856 283.996 353.768 283.868 353.592C283.74 353.416 283.652 353.224 283.604 353.016C283.556 352.792 283.452 352.592 283.292 352.416C283.132 352.24 282.916 352.152 282.644 352.152C281.924 352.152 281.308 352.8 280.796 354.096C280.012 356.032 279.62 358.216 279.62 360.648ZM290.889 351C292.345 351 293.353 351.592 293.913 352.776C294.217 353.4 294.465 353.992 294.657 354.552C294.849 355.112 294.977 355.88 295.041 356.856C295.137 358.344 295.185 360.04 295.185 361.944C295.185 363.832 294.729 365.336 293.817 366.456C292.921 367.592 291.601 368.16 289.857 368.16C288.129 368.16 286.689 367.6 285.537 366.48C285.857 366.16 286.201 366 286.569 366C286.953 366 287.473 366.16 288.129 366.48C288.801 366.816 289.513 366.984 290.265 366.984C291.017 366.984 291.641 366.808 292.137 366.456C292.633 366.12 293.001 365.64 293.241 365.016C293.641 363.912 293.841 362.552 293.841 360.936C293.841 360.696 293.817 359.808 293.769 358.272C293.337 359.584 292.721 360.672 291.921 361.536C291.121 362.384 290.217 362.808 289.209 362.808C288.201 362.808 287.457 362.36 286.977 361.464C286.513 360.552 286.281 359.52 286.281 358.368C286.281 357.216 286.441 356.096 286.761 355.008C287.081 353.904 287.601 352.96 288.321 352.176C289.041 351.392 289.897 351 290.889 351ZM288.345 354.648C288.137 355.352 287.985 356.016 287.889 356.64C287.793 357.264 287.745 357.896 287.745 358.536C287.745 359.16 287.873 359.856 288.129 360.624C288.401 361.392 288.793 361.776 289.305 361.776C290.313 361.776 291.209 361.024 291.993 359.52C292.777 358 293.169 356.472 293.169 354.936C293.169 354.408 292.921 353.816 292.425 353.16C291.945 352.488 291.337 352.152 290.601 352.152C290.089 352.152 289.633 352.392 289.233 352.872C288.849 353.352 288.553 353.944 288.345 354.648Z" fill="#5B6460"/>
<path d="M323.61 244.83C323.43 244.998 323.274 245.118 323.142 245.19C323.01 245.262 322.878 245.268 322.746 245.208C322.626 245.148 322.542 245.1 322.494 245.064C322.446 245.028 322.35 244.914 322.206 244.722C322.074 244.518 321.99 244.392 321.954 244.344C321.342 243.588 320.55 243.21 319.578 243.21C318.618 243.21 317.712 243.522 316.86 244.146C316.02 244.758 315.342 245.568 314.826 246.576C314.31 247.584 314.052 248.634 314.052 249.726C314.052 251.07 314.496 252.168 315.384 253.02C316.284 253.872 317.472 254.298 318.948 254.298C320.436 254.298 321.738 253.884 322.854 253.056C323.034 252.924 323.226 252.732 323.43 252.48C323.646 252.228 323.826 252.048 323.97 251.94C324.126 251.832 324.27 251.784 324.402 251.796C324.546 251.808 324.744 251.85 324.996 251.922C324.48 252.93 323.616 253.716 322.404 254.28C321.204 254.832 319.842 255.108 318.318 255.108C316.794 255.108 315.504 254.682 314.448 253.83C313.392 252.978 312.864 251.742 312.864 250.122C312.864 249.114 313.032 248.142 313.368 247.206C313.704 246.258 314.166 245.424 314.754 244.704C315.354 243.972 316.098 243.39 316.986 242.958C317.886 242.526 318.858 242.31 319.902 242.31C321.762 242.31 322.998 243.15 323.61 244.83ZM326.963 247.53C327.575 246.594 328.457 246.126 329.609 246.126C330.761 246.126 331.679 246.594 332.363 247.53C333.059 248.466 333.407 249.534 333.407 250.734C333.407 251.922 333.029 252.93 332.273 253.758C331.517 254.586 330.557 255 329.393 255C328.229 255 327.383 254.676 326.855 254.028C326.327 253.368 326.063 252.444 326.063 251.256C326.063 249.708 326.363 248.466 326.963 247.53ZM327.755 248.484C327.599 248.952 327.479 249.42 327.395 249.888C327.323 250.356 327.287 250.794 327.287 251.202C327.287 251.598 327.317 251.964 327.377 252.3C327.437 252.624 327.539 252.948 327.683 253.272C327.827 253.584 328.043 253.836 328.331 254.028C328.619 254.208 328.961 254.298 329.357 254.298C330.161 254.298 330.833 253.968 331.373 253.308C331.925 252.648 332.201 251.85 332.201 250.914C332.201 249.978 331.949 249.072 331.445 248.196C330.953 247.308 330.347 246.864 329.627 246.864C329.195 246.864 328.817 247.014 328.493 247.314C328.169 247.614 327.923 248.004 327.755 248.484ZM336.219 254.442C336.255 255.414 336.375 256.788 336.579 258.564C336.351 258.792 336.081 258.906 335.769 258.906C335.709 258.906 335.643 258.9 335.571 258.888C335.559 258.42 335.469 257.358 335.301 255.702C335.145 254.046 335.067 252.78 335.067 251.904C335.067 251.016 335.121 250.248 335.229 249.6C335.337 248.952 335.523 248.346 335.787 247.782C336.327 246.618 337.323 246.036 338.775 246.036C339.675 246.036 340.413 246.528 340.989 247.512C341.565 248.496 341.853 249.642 341.853 250.95C341.853 251.982 341.517 252.888 340.845 253.668C340.173 254.448 339.243 254.838 338.055 254.838C337.323 254.838 336.711 254.706 336.219 254.442ZM338.631 247.008C337.611 247.008 336.933 247.536 336.597 248.592C336.309 249.492 336.165 250.734 336.165 252.318C336.165 252.894 336.171 253.32 336.183 253.596C337.251 253.824 337.977 253.938 338.361 253.938C339.057 253.938 339.609 253.662 340.017 253.11C340.425 252.546 340.629 251.862 340.629 251.058C340.629 249.87 340.449 248.898 340.089 248.142C339.741 247.386 339.255 247.008 338.631 247.008ZM344.566 251.346C344.542 251.586 344.53 251.748 344.53 251.832C344.53 252.552 344.746 253.11 345.178 253.506C345.622 253.902 346.144 254.1 346.744 254.1C347.344 254.1 347.83 254.016 348.202 253.848C348.586 253.68 348.862 253.5 349.03 253.308C349.462 252.768 349.858 252.498 350.218 252.498C350.35 252.498 350.506 252.534 350.686 252.606C350.566 253.194 350.11 253.734 349.318 254.226C348.538 254.706 347.554 254.946 346.366 254.946C345.526 254.946 344.8 254.682 344.188 254.154C343.588 253.614 343.288 252.882 343.288 251.958C343.288 251.034 343.468 250.14 343.828 249.276C344.2 248.4 344.728 247.656 345.412 247.044C346.108 246.42 346.81 246.108 347.518 246.108C348.238 246.108 348.814 246.258 349.246 246.558C349.69 246.846 349.912 247.272 349.912 247.836C349.912 248.88 349.444 249.744 348.508 250.428C347.584 251.1 346.6 251.436 345.556 251.436C345.28 251.436 344.95 251.406 344.566 251.346ZM345.934 250.752C346.498 250.752 347.002 250.572 347.446 250.212C347.89 249.852 348.202 249.474 348.382 249.078C348.574 248.682 348.67 248.322 348.67 247.998C348.67 247.674 348.544 247.392 348.292 247.152C348.04 246.9 347.746 246.774 347.41 246.774C346.81 246.774 346.252 247.188 345.736 248.016C345.232 248.844 344.872 249.702 344.656 250.59C345.184 250.698 345.61 250.752 345.934 250.752ZM359.554 254.496C359.338 254.724 359.092 254.838 358.816 254.838C358.3 254.838 357.916 254.562 357.664 254.01C357.412 253.458 357.262 252.786 357.214 251.994C357.178 251.202 357.154 250.41 357.142 249.618C357.13 248.826 357.064 248.154 356.944 247.602C356.836 247.05 356.626 246.774 356.314 246.774C355.894 246.774 355.534 247.152 355.234 247.908C354.946 248.664 354.742 249.504 354.622 250.428C354.286 253.008 353.962 254.454 353.65 254.766C353.434 254.874 353.248 254.928 353.092 254.928C352.936 254.928 352.804 254.91 352.696 254.874C352.444 253.77 352.282 251.868 352.21 249.168C352.186 247.824 352.162 246.954 352.138 246.558C352.39 246.39 352.606 246.306 352.786 246.306C352.966 246.306 353.11 246.324 353.218 246.36C353.278 246.876 353.308 247.932 353.308 249.528C353.32 251.124 353.332 252.042 353.344 252.282C353.404 252.03 353.476 251.622 353.56 251.058C353.656 250.494 353.74 250.032 353.812 249.672C353.884 249.3 353.998 248.868 354.154 248.376C354.31 247.884 354.484 247.494 354.676 247.206C354.868 246.906 355.132 246.654 355.468 246.45C355.804 246.234 356.182 246.126 356.602 246.126C357.166 246.126 357.574 246.384 357.826 246.9C358.09 247.404 358.234 248.034 358.258 248.79C358.282 249.546 358.294 250.314 358.294 251.094C358.306 251.874 358.402 252.588 358.582 253.236C358.774 253.884 359.098 254.304 359.554 254.496ZM360.824 251.274L360.986 243.21C360.986 242.586 360.95 242.16 360.878 241.932C361.094 241.74 361.424 241.644 361.868 241.644C362.048 242.928 362.138 244.578 362.138 246.594C362.138 247.194 362.084 248.586 361.976 250.77C362.54 247.734 363.548 246.216 365 246.216C365.516 246.216 365.912 246.492 366.188 247.044C366.476 247.584 366.656 248.244 366.728 249.024C366.8 249.804 366.86 250.584 366.908 251.364C367.028 253.236 367.364 254.172 367.916 254.172C367.928 254.172 368.042 254.136 368.258 254.064C368.738 253.92 369.008 253.884 369.068 253.956C369.068 254.088 368.882 254.256 368.51 254.46C368.138 254.652 367.796 254.748 367.484 254.748C366.956 254.748 366.548 254.478 366.26 253.938C365.984 253.386 365.81 252.72 365.738 251.94C365.678 251.16 365.63 250.386 365.594 249.618C365.57 248.838 365.492 248.178 365.36 247.638C365.228 247.086 365.006 246.81 364.694 246.81C364.31 246.81 363.956 247.23 363.632 248.07C363.32 248.898 363.074 249.816 362.894 250.824C362.714 251.832 362.492 252.756 362.228 253.596C361.976 254.424 361.718 254.838 361.454 254.838C361.034 254.838 360.824 253.65 360.824 251.274ZM375.193 249.816L375.103 251.886C375.103 252.93 375.223 253.632 375.463 253.992C375.607 254.232 375.805 254.352 376.057 254.352C376.129 254.352 376.231 254.334 376.363 254.298C376.615 254.226 376.825 254.262 376.993 254.406C376.909 254.826 376.489 255.036 375.733 255.036C375.217 255.036 374.875 254.82 374.707 254.388C374.575 254.064 374.479 253.662 374.419 253.182C374.359 252.69 374.311 252.354 374.275 252.174C373.495 253.662 372.739 254.568 372.007 254.892C371.635 255.06 371.203 255.144 370.711 255.144C370.219 255.144 369.835 254.91 369.559 254.442C369.295 253.962 369.163 253.266 369.163 252.354C369.163 251.442 369.313 250.488 369.613 249.492C369.913 248.484 370.351 247.638 370.927 246.954C371.503 246.258 372.133 245.91 372.817 245.91C373.801 245.91 374.455 246.318 374.779 247.134C375.055 247.83 375.193 248.724 375.193 249.816ZM370.783 249.24C370.615 249.888 370.489 250.506 370.405 251.094C370.321 251.67 370.279 252.186 370.279 252.642C370.279 253.086 370.369 253.47 370.549 253.794C370.741 254.118 370.987 254.28 371.287 254.28C371.935 254.28 372.559 253.668 373.159 252.444C373.759 251.22 374.059 250.08 374.059 249.024C374.059 248.34 373.879 247.776 373.519 247.332C373.279 247.044 372.961 246.9 372.565 246.9C372.181 246.9 371.827 247.128 371.503 247.584C371.191 248.028 370.951 248.58 370.783 249.24ZM380.741 246C381.833 246 382.589 246.444 383.009 247.332C383.237 247.8 383.423 248.244 383.567 248.664C383.711 249.084 383.807 249.66 383.855 250.392C383.927 251.508 383.963 252.78 383.963 254.208C383.963 255.624 383.621 256.752 382.937 257.592C382.265 258.444 381.275 258.87 379.967 258.87C378.671 258.87 377.591 258.45 376.727 257.61C376.967 257.37 377.225 257.25 377.501 257.25C377.789 257.25 378.179 257.37 378.671 257.61C379.175 257.862 379.709 257.988 380.273 257.988C380.837 257.988 381.305 257.856 381.677 257.592C382.049 257.34 382.325 256.98 382.505 256.512C382.805 255.684 382.955 254.664 382.955 253.452C382.955 253.272 382.937 252.606 382.901 251.454C382.577 252.438 382.115 253.254 381.515 253.902C380.915 254.538 380.237 254.856 379.481 254.856C378.725 254.856 378.167 254.52 377.807 253.848C377.459 253.164 377.285 252.39 377.285 251.526C377.285 250.662 377.405 249.822 377.645 249.006C377.885 248.178 378.275 247.47 378.815 246.882C379.355 246.294 379.997 246 380.741 246ZM378.833 248.736C378.677 249.264 378.563 249.762 378.491 250.23C378.419 250.698 378.383 251.172 378.383 251.652C378.383 252.12 378.479 252.642 378.671 253.218C378.875 253.794 379.169 254.082 379.553 254.082C380.309 254.082 380.981 253.518 381.569 252.39C382.157 251.25 382.451 250.104 382.451 248.952C382.451 248.556 382.265 248.112 381.893 247.62C381.533 247.116 381.077 246.864 380.525 246.864C380.141 246.864 379.799 247.044 379.499 247.404C379.211 247.764 378.989 248.208 378.833 248.736ZM386.894 251.346C386.87 251.586 386.858 251.748 386.858 251.832C386.858 252.552 387.074 253.11 387.506 253.506C387.95 253.902 388.472 254.1 389.072 254.1C389.672 254.1 390.158 254.016 390.53 253.848C390.914 253.68 391.19 253.5 391.358 253.308C391.79 252.768 392.186 252.498 392.546 252.498C392.678 252.498 392.834 252.534 393.014 252.606C392.894 253.194 392.438 253.734 391.646 254.226C390.866 254.706 389.882 254.946 388.694 254.946C387.854 254.946 387.128 254.682 386.516 254.154C385.916 253.614 385.616 252.882 385.616 251.958C385.616 251.034 385.796 250.14 386.156 249.276C386.528 248.4 387.056 247.656 387.74 247.044C388.436 246.42 389.138 246.108 389.846 246.108C390.566 246.108 391.142 246.258 391.574 246.558C392.018 246.846 392.24 247.272 392.24 247.836C392.24 248.88 391.772 249.744 390.836 250.428C389.912 251.1 388.928 251.436 387.884 251.436C387.608 251.436 387.278 251.406 386.894 251.346ZM388.262 250.752C388.826 250.752 389.33 250.572 389.774 250.212C390.218 249.852 390.53 249.474 390.71 249.078C390.902 248.682 390.998 248.322 390.998 247.998C390.998 247.674 390.872 247.392 390.62 247.152C390.368 246.9 390.074 246.774 389.738 246.774C389.138 246.774 388.58 247.188 388.064 248.016C387.56 248.844 387.2 249.702 386.984 250.59C387.512 250.698 387.938 250.752 388.262 250.752ZM401.882 254.496C401.666 254.724 401.42 254.838 401.144 254.838C400.628 254.838 400.244 254.562 399.992 254.01C399.74 253.458 399.59 252.786 399.542 251.994C399.506 251.202 399.482 250.41 399.47 249.618C399.458 248.826 399.392 248.154 399.272 247.602C399.164 247.05 398.954 246.774 398.642 246.774C398.222 246.774 397.862 247.152 397.562 247.908C397.274 248.664 397.07 249.504 396.95 250.428C396.614 253.008 396.29 254.454 395.978 254.766C395.762 254.874 395.576 254.928 395.42 254.928C395.264 254.928 395.132 254.91 395.024 254.874C394.772 253.77 394.61 251.868 394.538 249.168C394.514 247.824 394.49 246.954 394.466 246.558C394.718 246.39 394.934 246.306 395.114 246.306C395.294 246.306 395.438 246.324 395.546 246.36C395.606 246.876 395.636 247.932 395.636 249.528C395.648 251.124 395.66 252.042 395.672 252.282C395.732 252.03 395.804 251.622 395.888 251.058C395.984 250.494 396.068 250.032 396.14 249.672C396.212 249.3 396.326 248.868 396.482 248.376C396.638 247.884 396.812 247.494 397.004 247.206C397.196 246.906 397.46 246.654 397.796 246.45C398.132 246.234 398.51 246.126 398.93 246.126C399.494 246.126 399.902 246.384 400.154 246.9C400.418 247.404 400.562 248.034 400.586 248.79C400.61 249.546 400.622 250.314 400.622 251.094C400.634 251.874 400.73 252.588 400.91 253.236C401.102 253.884 401.426 254.304 401.882 254.496Z" fill="#5B6460"/>
</svg>
