<svg width="32" height="32" viewBox="0 0 32 32" fill="none" xmlns="http://www.w3.org/2000/svg">
<g clip-path="url(#clip0_2_1143)">
<path d="M5.85298 22.2021C6.18698 22.0351 6.83498 21.7121 6.83498 20.5611C6.83498 19.7351 6.33298 18.5061 4.36798 18.5061H0.474976V26.5191H3.86798C5.50898 26.5191 5.94398 26.2401 6.40098 25.7911C6.82298 25.3811 7.09098 24.7761 7.09098 24.1431C7.09098 23.3501 6.83498 22.5691 5.85298 22.2021ZM2.08298 19.8931H4.00298C4.76098 19.8931 5.22998 20.0931 5.22998 20.7511C5.22998 21.3891 4.70698 21.6451 4.04598 21.6451H2.08298V19.8931ZM4.13398 25.1351H2.08298V22.9921H4.21398C4.81798 22.9921 5.41898 23.2631 5.41898 23.9631C5.41698 24.7761 4.94798 25.1351 4.13398 25.1351Z" fill="#E9ECE0"/>
<path d="M0.476013 27.7881V28.5161H1.71601V31.8931H2.57101V28.5161H3.81401V27.7881H0.476013Z" fill="#E9ECE0"/>
<path d="M28.066 21.7869L31.336 18.5049H29.172L26.114 21.7619V18.5049H24.44V26.5159H26.114V23.8049L26.895 23.0009L29.371 26.5159H31.525L28.066 21.7869Z" fill="#E9ECE0"/>
<path d="M12.361 18.5049H10.431L7.57703 26.5169H9.33903L9.89603 24.8669H12.853L13.367 26.5159H15.185L12.361 18.5049ZM10.342 23.4809L11.369 20.3129H11.392L12.384 23.4809H10.342Z" fill="#E9ECE0"/>
<path d="M19.829 2.805C19.327 2.212 18.774 1.659 18.124 1.18C17.802 0.938 17.458 0.715 17.081 0.515C16.701 0.319 16.312 0.13 15.847 0C15.855 0.483 15.939 0.908 16.038 1.324C16.132 1.728 16.259 2.107 16.407 2.471C16.053 2.575 15.623 2.721 15.139 2.909C14.826 3.049 14.483 3.175 14.137 3.362C13.786 3.53 13.43 3.734 13.069 3.962C12.702 4.169 12.36 4.463 12.001 4.717C11.674 5.028 11.315 5.297 11.024 5.65C10.723 5.988 10.429 6.326 10.202 6.71C10.087 6.897 9.95403 7.07 9.85803 7.261C9.76603 7.455 9.67803 7.648 9.59203 7.836C9.39703 8.2 9.30803 8.592 9.20603 8.949C9.08503 9.303 9.04203 9.65 9.00903 9.97C8.98203 10.289 8.91503 10.571 8.93103 10.831C8.93903 11.087 8.94503 11.309 8.95103 11.493C8.96203 11.856 8.96503 12.063 8.96503 12.063C8.96503 12.063 9.00403 11.858 9.07003 11.501C9.10303 11.324 9.14403 11.111 9.19103 10.865C9.22803 10.62 9.35503 10.36 9.44303 10.073C9.53703 9.786 9.64603 9.48 9.82603 9.186C9.99003 8.887 10.139 8.564 10.381 8.285C10.49 8.142 10.602 7.994 10.713 7.847C10.83 7.704 10.98 7.581 11.109 7.447C11.363 7.17 11.673 6.946 11.98 6.724C12.273 6.491 12.63 6.334 12.939 6.143C13.291 6.002 13.601 5.826 13.947 5.724C14.277 5.604 14.602 5.503 14.92 5.431C15.229 5.341 15.54 5.301 15.811 5.243C15.985 5.218 16.145 5.197 16.299 5.178C16.281 5.224 16.262 5.268 16.246 5.315C16.088 5.748 15.965 6.203 15.879 6.682C15.84 6.925 15.808 7.171 15.783 7.422C15.763 7.677 15.759 7.941 15.777 8.219C16.038 8.119 16.275 8.006 16.5 7.883C16.717 7.756 16.93 7.624 17.133 7.488C17.536 7.211 17.899 6.91 18.227 6.588C18.891 5.946 19.44 5.229 19.901 4.458L19.96 4.36C20.243 3.881 20.21 3.254 19.829 2.805Z" fill="#E9ECE0"/>
<path d="M7.57801 30.9651C7.57801 30.1991 7.39401 30.0731 7.05701 29.9251C7.46301 29.7881 7.69201 29.4011 7.69201 28.9461C7.69201 28.5921 7.49301 27.7871 6.40101 27.7871H4.32501V31.8901H5.16701V30.2851H6.05201C6.68701 30.2851 6.72201 30.5031 6.72201 31.0611C6.72201 31.4831 6.75501 31.6971 6.81201 31.8891H7.76101V31.7821C7.57801 31.7141 7.57801 31.5641 7.57801 30.9651ZM6.16901 29.5961H5.16601V28.4961H6.23401C6.73601 28.4961 6.83401 28.8141 6.83401 29.0331C6.83301 29.4371 6.61701 29.5961 6.16901 29.5961Z" fill="#E9ECE0"/>
<path d="M23.339 28.5161V27.7881H20.419V31.8941H21.277V30.1681H23.083V29.4421H21.277V28.5161H23.339Z" fill="#E9ECE0"/>
<path d="M24.755 31.165V30.105H26.755V29.379H24.755V28.517H26.934V27.79H23.915V31.893H27.03V31.165H24.755Z" fill="#E9ECE0"/>
<path d="M18.691 29.553L17.693 29.307C17.521 29.266 17.257 29.197 17.257 28.877C17.257 28.506 17.648 28.387 17.972 28.387C18.722 28.387 18.791 28.82 18.814 29.003H19.634C19.628 28.5 19.292 27.678 18.034 27.678C16.702 27.678 16.457 28.483 16.457 28.94C16.457 29.844 17.096 29.995 17.76 30.147L18.199 30.251C18.632 30.356 18.942 30.44 18.942 30.762C18.942 31.191 18.489 31.291 18.086 31.291C17.336 31.291 17.221 30.857 17.215 30.628H16.395C16.395 31.139 16.65 32 18.148 32C18.506 32 19.765 31.888 19.765 30.657C19.764 29.92 19.25 29.689 18.691 29.553Z" fill="#E9ECE0"/>
<path d="M30.982 30.9651C30.982 30.1991 30.796 30.0731 30.461 29.9251C30.865 29.7881 31.098 29.4011 31.098 28.9461C31.098 28.5921 30.897 27.7871 29.805 27.7871H27.731V31.8901H28.573V30.2851H29.458C30.091 30.2851 30.128 30.5031 30.128 31.0611C30.128 31.4831 30.161 31.6971 30.219 31.8891H31.165V31.7821C30.982 31.7141 30.982 31.5641 30.982 30.9651ZM29.576 29.5961H28.572V28.4961H29.638C30.142 28.4961 30.24 28.8141 30.24 29.0331C30.24 29.4371 30.023 29.5961 29.576 29.5961Z" fill="#E9ECE0"/>
<path d="M21.145 18.5081V24.0861H21.124L17.943 18.5081H16.18V26.5201H17.742L17.744 20.8081H17.765L21.035 26.5211H22.707V18.5081H21.145Z" fill="#E9ECE0"/>
<path d="M10.474 27.7881H9.48302L8.02002 31.8911H8.92402L9.20902 31.0441H10.723L10.987 31.8911H11.919L10.474 27.7881ZM9.43902 30.3361L9.96602 28.7141H9.97402L10.486 30.3361H9.43902Z" fill="#E9ECE0"/>
<path d="M14.976 27.7881L14.975 30.6441H14.965L13.334 27.7881H12.432V31.8911H13.231V28.9641H13.244L14.918 31.8911H15.777V27.7881H14.976Z" fill="#E9ECE0"/>
<path d="M21.957 5.66004C21.938 5.29804 21.922 5.09204 21.922 5.09204C21.922 5.09204 21.893 5.29704 21.832 5.65604C21.803 5.83304 21.77 6.04804 21.731 6.29504C21.701 6.54104 21.582 6.80404 21.502 7.09404C21.419 7.38404 21.32 7.69204 21.148 7.99204C20.994 8.29604 20.855 8.62204 20.621 8.90904C20.517 9.05604 20.41 9.20604 20.304 9.35804C20.189 9.50304 20.045 9.63104 19.916 9.76904C19.672 10.052 19.369 10.287 19.068 10.517C18.785 10.759 18.431 10.925 18.127 11.126C17.781 11.277 17.476 11.463 17.133 11.574C16.808 11.705 16.485 11.815 16.169 11.896C15.864 11.996 15.556 12.045 15.286 12.11C15.113 12.141 14.952 12.167 14.8 12.19C14.814 12.143 14.833 12.099 14.849 12.052C14.993 11.613 15.103 11.155 15.175 10.674C15.206 10.43 15.229 10.183 15.247 9.93104C15.26 9.67604 15.256 9.41104 15.231 9.13504C14.973 9.24104 14.739 9.36204 14.518 9.49204C14.303 9.62504 14.098 9.76304 13.897 9.90504C13.505 10.194 13.151 10.505 12.833 10.838C12.189 11.499 11.662 12.232 11.224 13.017L11.167 13.115C10.898 13.603 10.95 14.228 11.345 14.666C11.865 15.243 12.435 15.78 13.097 16.239C13.425 16.472 13.776 16.684 14.161 16.872C14.544 17.058 14.938 17.236 15.409 17.351C15.384 16.87 15.286 16.448 15.179 16.035C15.072 15.634 14.935 15.258 14.775 14.899C15.127 14.784 15.55 14.626 16.029 14.424C16.337 14.276 16.676 14.138 17.017 13.941C17.361 13.764 17.713 13.549 18.062 13.31C18.422 13.092 18.756 12.788 19.109 12.523C19.426 12.204 19.777 11.922 20.058 11.562C20.349 11.215 20.631 10.87 20.847 10.479C20.957 10.288 21.082 10.111 21.174 9.91704C21.258 9.72004 21.342 9.52504 21.422 9.33404C21.606 8.96404 21.684 8.56904 21.776 8.21004C21.884 7.85404 21.92 7.50504 21.942 7.18504C21.963 6.86604 22.018 6.58104 21.996 6.32204C21.979 6.06704 21.967 5.84404 21.957 5.66004Z" fill="#E9ECE0"/>
</g>
<defs>
<clipPath id="clip0_2_1143">
<rect width="32" height="32" fill="white"/>
</clipPath>
</defs>
</svg>
