<svg width="50" height="50" viewBox="0 0 50 50" fill="none" xmlns="http://www.w3.org/2000/svg">
<g clip-path="url(#clip0_2_859)">
<path d="M25 50C38.8071 50 50 38.8071 50 25C50 11.1929 38.8071 0 25 0C11.1929 0 0 11.1929 0 25C0 38.8071 11.1929 50 25 50Z" fill="#5B6460"/>
<g clip-path="url(#clip1_2_859)">
<path d="M24.5035 20.1083C21.5259 20.1083 19.1152 22.5215 19.1152 25.4965C19.1152 28.4742 21.5285 30.8848 24.5035 30.8848C27.4811 30.8848 29.8917 28.4715 29.8917 25.4965C29.8917 22.5189 27.4785 20.1083 24.5035 20.1083ZM24.5035 28.9939C22.5706 28.9939 21.0061 27.4285 21.0061 25.4965C21.0061 23.5645 22.5715 21.9992 24.5035 21.9992C26.4355 21.9992 28.0009 23.5645 28.0009 25.4965C28.0017 27.4285 26.4364 28.9939 24.5035 28.9939Z" fill="#E9ECE0"/>
<path d="M28.8296 15.0665C26.8976 14.9763 22.1122 14.9807 20.1785 15.0665C18.4792 15.1461 16.9803 15.5565 15.772 16.7648C13.7525 18.7843 14.0106 21.5056 14.0106 25.4965C14.0106 29.581 13.7831 32.2392 15.772 34.2281C17.7993 36.2546 20.56 35.9895 24.5036 35.9895C28.5496 35.9895 29.9461 35.9921 31.3767 35.4382C33.3218 34.6831 34.7901 32.9445 34.9336 29.8216C35.0246 27.8887 35.0193 23.1042 34.9336 21.1705C34.7603 17.4841 32.7819 15.2485 28.8296 15.0665ZM31.8877 32.892C30.5638 34.2158 28.7272 34.0977 24.4782 34.0977C20.1032 34.0977 18.3488 34.1625 17.0687 32.8788C15.5943 31.4115 15.8612 29.0551 15.8612 25.4825C15.8612 20.6481 15.3651 17.1665 20.217 16.918C21.3317 16.8786 21.6598 16.8655 24.466 16.8655L24.5053 16.8917C29.1682 16.8917 32.8266 16.4035 33.0462 21.2545C33.0961 22.3613 33.1075 22.6938 33.1075 25.4956C33.1066 29.8198 33.1888 31.5847 31.8877 32.892Z" fill="#E9ECE0"/>
<path d="M30.1052 21.1546C30.8006 21.1546 31.3643 20.5909 31.3643 19.8955C31.3643 19.2001 30.8006 18.6364 30.1052 18.6364C29.4098 18.6364 28.8461 19.2001 28.8461 19.8955C28.8461 20.5909 29.4098 21.1546 30.1052 21.1546Z" fill="#E9ECE0"/>
</g>
</g>
<defs>
<clipPath id="clip0_2_859">
<rect width="50" height="50" fill="white"/>
</clipPath>
<clipPath id="clip1_2_859">
<rect width="21" height="21" fill="white" transform="translate(14 15)"/>
</clipPath>
</defs>
</svg>
