<svg width="71" height="66" viewBox="0 0 71 66" fill="none" xmlns="http://www.w3.org/2000/svg">
<path d="M4.22822 59.8488V59.0285H0V59.8488H1.65746V65.0495H2.57076V59.8488H4.22822Z" fill="#333333"/>
<path d="M9.87349 65.0495V59.0285H8.96019V61.5993H6.51628V59.0285H5.60299V65.0495H6.51628V62.4196H8.96019V65.0495H9.87349Z" fill="#333333"/>
<path d="M15.6358 65.0495V64.2292H12.7014V62.4196H15.2045V61.6077H12.7014V59.8488H15.6358V59.0285H11.7881V65.0495H15.6358Z" fill="#333333"/>
<path d="M23.7351 62.7155V61.7938H21.5364V62.5718H22.8218V62.91C22.8218 63.1073 22.7993 63.2821 22.7542 63.4343C22.7091 63.5865 22.6301 63.7275 22.5174 63.8571C22.399 63.9925 22.2552 64.0967 22.0861 64.17C21.917 64.2433 21.7338 64.28 21.5364 64.28C21.356 64.28 21.1897 64.249 21.0375 64.187C20.8853 64.1193 20.7556 64.0291 20.6485 63.9163C20.5752 63.8374 20.5132 63.7529 20.4625 63.6627C20.4174 63.5668 20.3807 63.4512 20.3525 63.3159C20.33 63.175 20.3131 63.003 20.3018 62.8001C20.2905 62.5971 20.2849 62.3434 20.2849 62.039C20.2849 61.7346 20.2905 61.4837 20.3018 61.2864C20.3131 61.0834 20.33 60.9143 20.3525 60.779C20.3807 60.6381 20.4174 60.5225 20.4625 60.4323C20.5132 60.3365 20.5752 60.2491 20.6485 60.1701C20.7556 60.0574 20.8853 59.9672 21.0375 59.8995C21.1897 59.8319 21.356 59.7981 21.5364 59.7981C21.8747 59.7981 22.1509 59.8911 22.3652 60.0771C22.5794 60.2575 22.726 60.514 22.8049 60.8467H23.7267C23.6816 60.5873 23.6026 60.3449 23.4899 60.1194C23.3771 59.8939 23.2277 59.6966 23.0417 59.5275C22.8613 59.3583 22.6442 59.2258 22.3905 59.13C22.1425 59.0285 21.8578 58.9778 21.5364 58.9778C21.2151 58.9778 20.9219 59.0342 20.657 59.1469C20.3976 59.254 20.1637 59.4119 19.9551 59.6205C19.8085 59.7671 19.6958 59.9221 19.6168 60.0856C19.5379 60.2491 19.4787 60.4267 19.4392 60.6183C19.4054 60.81 19.3857 61.0242 19.38 61.261C19.3744 61.4922 19.3716 61.7515 19.3716 62.039C19.3716 62.3265 19.3744 62.5887 19.38 62.8255C19.3857 63.0566 19.4054 63.268 19.4392 63.4597C19.4787 63.6514 19.5379 63.829 19.6168 63.9925C19.6958 64.1559 19.8085 64.311 19.9551 64.4576C20.1637 64.6661 20.4005 64.8268 20.6654 64.9396C20.9304 65.0467 21.2207 65.1002 21.5364 65.1002C21.8578 65.1002 22.1566 65.0467 22.4328 64.9396C22.7091 64.8325 22.9628 64.6577 23.1939 64.4153C23.3912 64.201 23.5293 63.9614 23.6083 63.6965C23.6928 63.4315 23.7351 63.1045 23.7351 62.7155Z" fill="#333333"/>
<path d="M29.2353 65.0495V64.2292H26.3347V59.0285H25.4214V65.0495H29.2353Z" fill="#333333"/>
<path d="M35.0467 65.0495L32.8396 59.0285H32.1039L29.8968 65.0495H30.8692L31.2836 63.8402H33.6599L34.0742 65.0495H35.0467ZM33.4062 63.0622H31.5542L32.4929 60.39L33.4062 63.0622Z" fill="#333333"/>
<path d="M40.0022 63.3328C40.0022 63.0735 39.9599 62.8396 39.8754 62.631C39.7964 62.4224 39.6752 62.2448 39.5117 62.0982C39.3821 61.9855 39.2327 61.8953 39.0635 61.8276C38.8944 61.7543 38.6689 61.6951 38.387 61.65L37.702 61.5485C37.4089 61.5034 37.1834 61.4104 37.0255 61.2695C36.9466 61.1962 36.8874 61.1144 36.8479 61.0242C36.8141 60.9284 36.7972 60.8241 36.7972 60.7114C36.7972 60.4407 36.8902 60.2181 37.0763 60.0433C37.2679 59.8629 37.5414 59.7727 37.8965 59.7727C38.1502 59.7727 38.3842 59.8065 38.5984 59.8742C38.8183 59.9362 39.0213 60.0574 39.2073 60.2378L39.7908 59.6628C39.5315 59.4203 39.2552 59.2456 38.9621 59.1385C38.6689 59.0313 38.3222 58.9778 37.9219 58.9778C37.6062 58.9778 37.3243 59.0201 37.0763 59.1046C36.8282 59.1892 36.6168 59.3104 36.442 59.4683C36.2729 59.6261 36.1404 59.815 36.0446 60.0348C35.9544 60.2491 35.9093 60.4858 35.9093 60.7452C35.9093 61.2357 36.0559 61.619 36.349 61.8953C36.6196 62.1489 37.0002 62.3096 37.4906 62.3773L38.201 62.4787C38.3814 62.5069 38.5167 62.5379 38.6069 62.5718C38.6971 62.6056 38.7817 62.6592 38.8606 62.7324C39.0184 62.8734 39.0974 63.082 39.0974 63.3582C39.0974 63.6514 38.9874 63.8797 38.7676 64.0432C38.5533 64.201 38.2489 64.28 37.8543 64.28C37.5442 64.28 37.2651 64.2405 37.0171 64.1616C36.769 64.077 36.5351 63.9248 36.3152 63.7049L35.7063 64.3053C35.9938 64.5985 36.3067 64.8043 36.645 64.9227C36.9832 65.0411 37.3807 65.1002 37.8373 65.1002C38.1531 65.1002 38.4434 65.0608 38.7084 64.9819C38.9733 64.9029 39.2017 64.7874 39.3933 64.6351C39.585 64.4829 39.7344 64.2969 39.8415 64.077C39.9486 63.8571 40.0022 63.6091 40.0022 63.3328Z" fill="#333333"/>
<path d="M45.2458 63.3328C45.2458 63.0735 45.2036 62.8396 45.119 62.631C45.0401 62.4224 44.9189 62.2448 44.7554 62.0982C44.6257 61.9855 44.4763 61.8953 44.3072 61.8276C44.1381 61.7543 43.9125 61.6951 43.6307 61.65L42.9457 61.5485C42.6525 61.5034 42.427 61.4104 42.2692 61.2695C42.1903 61.1962 42.1311 61.1144 42.0916 61.0242C42.0578 60.9284 42.0409 60.8241 42.0409 60.7114C42.0409 60.4407 42.1339 60.2181 42.3199 60.0433C42.5116 59.8629 42.785 59.7727 43.1402 59.7727C43.3939 59.7727 43.6278 59.8065 43.8421 59.8742C44.0619 59.9362 44.2649 60.0574 44.4509 60.2378L45.0344 59.6628C44.7751 59.4203 44.4989 59.2456 44.2057 59.1385C43.9125 59.0313 43.5658 58.9778 43.1656 58.9778C42.8499 58.9778 42.568 59.0201 42.3199 59.1046C42.0719 59.1892 41.8605 59.3104 41.6857 59.4683C41.5166 59.6261 41.3841 59.815 41.2882 60.0348C41.198 60.2491 41.1529 60.4858 41.1529 60.7452C41.1529 61.2357 41.2995 61.619 41.5927 61.8953C41.8633 62.1489 42.2438 62.3096 42.7343 62.3773L43.4446 62.4787C43.625 62.5069 43.7603 62.5379 43.8505 62.5718C43.9407 62.6056 44.0253 62.6592 44.1042 62.7324C44.2621 62.8734 44.341 63.082 44.341 63.3582C44.341 63.6514 44.2311 63.8797 44.0112 64.0432C43.797 64.201 43.4925 64.28 43.0979 64.28C42.7878 64.28 42.5088 64.2405 42.2607 64.1616C42.0127 64.077 41.7787 63.9248 41.5588 63.7049L40.95 64.3053C41.2375 64.5985 41.5504 64.8043 41.8886 64.9227C42.2269 65.0411 42.6243 65.1002 43.081 65.1002C43.3967 65.1002 43.687 65.0608 43.952 64.9819C44.217 64.9029 44.4453 64.7874 44.637 64.6351C44.8287 64.4829 44.9781 64.2969 45.0852 64.077C45.1923 63.8571 45.2458 63.6091 45.2458 63.3328Z" fill="#333333"/>
<path d="M53.4493 65.0495V59.0285H52.536V61.5993H50.092V59.0285H49.1788V65.0495H50.092V62.4196H52.536V65.0495H53.4493Z" fill="#333333"/>
<path d="M59.5921 63.02V59.0285H58.6788V62.9777C58.6788 63.3836 58.5632 63.7021 58.3321 63.9333C58.1066 64.1644 57.8049 64.28 57.4272 64.28C57.0495 64.28 56.7479 64.1644 56.5224 63.9333C56.2969 63.7021 56.1841 63.3836 56.1841 62.9777V59.0285H55.2708V63.02C55.2708 63.33 55.3244 63.6147 55.4315 63.8741C55.5443 64.1278 55.6965 64.3448 55.8881 64.5252C56.0798 64.7056 56.3082 64.8466 56.5731 64.948C56.8381 65.0495 57.1228 65.1002 57.4272 65.1002C57.7317 65.1002 58.0163 65.0495 58.2813 64.948C58.5463 64.8466 58.7746 64.7056 58.9663 64.5252C59.1636 64.3448 59.3158 64.1278 59.4229 63.8741C59.5357 63.6147 59.5921 63.33 59.5921 63.02Z" fill="#333333"/>
<path d="M65.104 59.8488V59.0285H60.8758V59.8488H62.5333V65.0495H63.4466V59.8488H65.104Z" fill="#333333"/>
<path d="M70.2419 63.3328C70.2419 63.0735 70.1996 62.8396 70.115 62.631C70.0361 62.4224 69.9149 62.2448 69.7514 62.0982C69.6218 61.9855 69.4724 61.8953 69.3032 61.8276C69.1341 61.7543 68.9086 61.6951 68.6267 61.65L67.9417 61.5485C67.6486 61.5034 67.4231 61.4104 67.2652 61.2695C67.1863 61.1962 67.1271 61.1144 67.0876 61.0242C67.0538 60.9284 67.0369 60.8241 67.0369 60.7114C67.0369 60.4407 67.1299 60.2181 67.316 60.0433C67.5076 59.8629 67.7811 59.7727 68.1362 59.7727C68.3899 59.7727 68.6239 59.8065 68.8381 59.8742C69.058 59.9362 69.2609 60.0574 69.447 60.2378L70.0305 59.6628C69.7711 59.4203 69.4949 59.2456 69.2018 59.1385C68.9086 59.0313 68.5619 58.9778 68.1616 58.9778C67.8459 58.9778 67.564 59.0201 67.316 59.1046C67.0679 59.1892 66.8565 59.3104 66.6817 59.4683C66.5126 59.6261 66.3801 59.815 66.2843 60.0348C66.1941 60.2491 66.149 60.4858 66.149 60.7452C66.149 61.2357 66.2956 61.619 66.5887 61.8953C66.8593 62.1489 67.2399 62.3096 67.7303 62.3773L68.4407 62.4787C68.6211 62.5069 68.7564 62.5379 68.8466 62.5718C68.9368 62.6056 69.0213 62.6592 69.1003 62.7324C69.2581 62.8734 69.3371 63.082 69.3371 63.3582C69.3371 63.6514 69.2271 63.8797 69.0072 64.0432C68.793 64.201 68.4886 64.28 68.094 64.28C67.7839 64.28 67.5048 64.2405 67.2568 64.1616C67.0087 64.077 66.7748 63.9248 66.5549 63.7049L65.946 64.3053C66.2335 64.5985 66.5464 64.8043 66.8847 64.9227C67.2229 65.0411 67.6204 65.1002 68.077 65.1002C68.3928 65.1002 68.6831 65.0608 68.9481 64.9819C69.213 64.9029 69.4413 64.7874 69.633 64.6351C69.8247 64.4829 69.9741 64.2969 70.0812 64.077C70.1883 63.8571 70.2419 63.6091 70.2419 63.3328Z" fill="#333333"/>
<path fill-rule="evenodd" clip-rule="evenodd" d="M37.728 45.1436L69.4794 49.9608V21.4259L37.0483 5.02082L16.8949 0.839514L0.787064 13.8923V49.1202L37.728 45.1436ZM0.00646973 49.9893V13.5202L16.691 0L37.3083 4.27753L70.26 20.946V50.8687L37.7109 45.9305L0.00646973 49.9893Z" fill="#333333"/>
<path fill-rule="evenodd" clip-rule="evenodd" d="M66.6902 24.2088L60.1852 30.9739L59.6226 30.4329L66.1275 23.6677L66.6902 24.2088Z" fill="#333333"/>
<path fill-rule="evenodd" clip-rule="evenodd" d="M48.6938 32.7363L54.4182 37.1597L53.9409 37.7774L48.2166 33.354L48.6938 32.7363Z" fill="#333333"/>
<path fill-rule="evenodd" clip-rule="evenodd" d="M59.3882 49.1775L59.3882 8.19632L60.1688 8.19632L60.1688 49.1775L59.3882 49.1775Z" fill="#333333"/>
<path fill-rule="evenodd" clip-rule="evenodd" d="M53.713 26.8202L53.713 1.04081L54.4936 1.0408L54.4936 26.8202L53.713 26.8202Z" fill="#333333"/>
<path fill-rule="evenodd" clip-rule="evenodd" d="M53.713 54.9019L53.713 24.0684L54.4936 24.0684L54.4936 54.9019L53.713 54.9019Z" fill="#333333"/>
<path fill-rule="evenodd" clip-rule="evenodd" d="M67.4497 27.9713H63.0264V27.1907H67.4497V27.9713Z" fill="#333333"/>
<path fill-rule="evenodd" clip-rule="evenodd" d="M16.3989 47.7465V0.520508H17.1795V47.7465H16.3989Z" fill="#333333"/>
<path fill-rule="evenodd" clip-rule="evenodd" d="M36.9546 45.6648V4.68359H37.7352V45.6648H36.9546Z" fill="#333333"/>
</svg>
