<svg width="11" height="15" viewBox="0 0 11 15" fill="none" xmlns="http://www.w3.org/2000/svg">
<path d="M5.21393 0C2.33899 0 0 2.33899 0 5.21393C0 8.82742 5.21906 15 5.21906 15C5.21906 15 10.4279 8.64972 10.4279 5.21393C10.4279 2.33899 8.08896 0 5.21393 0ZM6.78708 6.74057C6.3533 7.17426 5.78366 7.39114 5.21393 7.39114C4.64429 7.39114 4.07446 7.17426 3.64087 6.74057C2.77341 5.8732 2.77341 4.46182 3.64087 3.59436C4.06091 3.17413 4.61966 2.94269 5.21393 2.94269C5.8082 2.94269 6.36685 3.17422 6.78708 3.59436C7.65454 4.46182 7.65454 5.8732 6.78708 6.74057Z" fill="white"/>
</svg>
