<svg width="51" height="51" viewBox="0 0 51 51" fill="none" xmlns="http://www.w3.org/2000/svg">
<g clip-path="url(#clip0_2_1230)">
<path d="M9.03506 20.604C8.87006 20.273 8.60906 20 8.28506 19.795C7.94706 19.588 7.54806 19.443 7.09206 19.357C6.62806 19.273 6.09206 19.235 5.47106 19.229L2.60406 19.231C2.30606 19.235 2.01406 19.467 1.94406 19.755L0.0150578 28.157C-0.0549422 28.441 0.132058 28.679 0.430058 28.679H1.80306C2.10106 28.679 2.39606 28.448 2.46206 28.157L2.93306 26.117C2.99606 25.833 3.29006 25.596 3.59106 25.596H3.98406C5.66306 25.594 6.96306 25.251 7.89706 24.564C8.83606 23.876 9.29906 22.967 9.29906 21.841C9.29806 21.348 9.21706 20.934 9.03506 20.604ZM6.07406 23.349C5.65906 23.653 5.08206 23.805 4.33806 23.805H4.00206C3.70306 23.805 3.52006 23.569 3.58506 23.281L3.99806 21.497C4.05606 21.211 4.35706 20.974 4.65206 20.976L5.10206 20.973C5.62706 20.973 6.02806 21.064 6.29606 21.24C6.56106 21.414 6.69406 21.691 6.69206 22.058C6.70006 22.616 6.48706 23.045 6.07406 23.349Z" fill="#E9ECE0"/>
<path d="M48.175 19.8871L48.089 19.9131L47.974 19.9291L47.833 19.9071L47.761 19.8371L47.728 19.7271L47.726 19.5621V18.9511H48.185V18.7621H47.726V18.3811H47.499V18.7621H47.345V18.9511H47.499V19.6621L47.605 20.0141L47.917 20.1261L48.048 20.1151L48.187 20.0881V19.8871H48.175Z" fill="#E9ECE0"/>
<path d="M50.304 18.8591L49.976 18.7241L49.734 18.7731L49.488 18.9391L49.345 18.7801L49.113 18.7251L48.89 18.7741L48.679 18.9101V18.7621H48.456V20.0971H48.678V19.1001L48.865 18.9841L49.051 18.9381L49.203 18.9651L49.278 19.0421L49.311 19.1701L49.322 19.3351V20.0981H49.545V19.2441L49.541 19.1731L49.537 19.1081L49.727 18.9871L49.915 18.9401L50.062 18.9671L50.142 19.0441L50.17 19.1731L50.185 19.3361V20.0991H50.409V19.2321L50.304 18.8591Z" fill="#E9ECE0"/>
<path d="M15.656 21.8049C15.138 21.5129 14.32 21.3669 13.202 21.3669C12.649 21.3669 12.098 21.4099 11.541 21.4959C11.13 21.5589 11.09 21.5709 10.837 21.6259C10.315 21.7399 10.233 22.2609 10.233 22.2609L10.065 22.9519C9.96999 23.3929 10.224 23.3759 10.33 23.3389C10.558 23.2709 10.685 23.2009 11.151 23.0969C11.596 22.9959 12.065 22.9199 12.437 22.9249C12.986 22.9249 13.406 22.9829 13.686 23.1009C13.962 23.2209 14.1 23.4269 14.1 23.7249L14.076 23.9189L13.878 24.0409C13.099 24.0899 12.536 24.1619 11.853 24.2609C11.185 24.3539 10.599 24.5169 10.112 24.7399C9.58899 24.9699 9.20099 25.2789 8.92999 25.6719C8.66799 26.0669 8.53699 26.5459 8.53699 27.1079C8.53699 27.6369 8.72699 28.0739 9.09599 28.4119C9.46699 28.7439 9.95699 28.9059 10.543 28.9059C10.914 28.9039 11.201 28.8749 11.405 28.8259L12.07 28.5969L12.633 28.2849L13.151 27.9429L13.158 27.9529L13.106 28.1729L13.103 28.1819V28.1839C13.047 28.4519 13.209 28.6719 13.47 28.6979L13.475 28.7039H13.499H14.552H14.75L14.768 28.6959C15.042 28.6639 15.299 28.4439 15.359 28.1819L16.36 23.8489L16.412 23.4959L16.436 23.1649C16.44 22.5509 16.175 22.0959 15.656 21.8049ZM13.442 26.6769L13.228 26.9589L12.688 27.2379C12.434 27.3409 12.193 27.3929 11.97 27.3929C11.632 27.3929 11.367 27.3439 11.188 27.2439L10.923 26.7289C10.923 26.4499 10.987 26.2289 11.124 26.0589L11.706 25.6629C11.955 25.5789 12.259 25.5079 12.611 25.4589C12.925 25.4199 13.545 25.3489 13.626 25.3469L13.721 25.5139C13.702 25.6089 13.526 26.3449 13.442 26.6769Z" fill="#E9ECE0"/>
<path d="M40.594 21.8111C40.073 21.5191 39.256 21.3721 38.141 21.3721C37.588 21.3721 37.036 21.4151 36.481 21.5041C36.069 21.5641 36.028 21.5771 35.774 21.6311C35.253 21.7441 35.172 22.2671 35.172 22.2671L35.004 22.9571C34.91 23.3981 35.158 23.3781 35.274 23.3441C35.503 23.2761 35.626 23.2091 36.088 23.1011C36.531 23.0011 37.004 22.9271 37.377 22.9291C37.924 22.9291 38.344 22.9881 38.623 23.1061C38.901 23.2261 39.037 23.4341 39.037 23.7291L39.016 23.9221L38.82 24.0471C38.033 24.0941 37.469 24.1661 36.793 24.2651C36.127 24.3581 35.539 24.5201 35.051 24.7441C34.53 24.9751 34.137 25.2841 33.869 25.6781C33.604 26.0731 33.475 26.5511 33.475 27.1081C33.475 27.6411 33.663 28.0781 34.037 28.4141C34.41 28.7451 34.895 28.9111 35.481 28.9111C35.85 28.9071 36.137 28.8831 36.342 28.8301L37.005 28.6041L37.573 28.2921L38.087 27.9461L38.096 27.9571L38.049 28.1791L38.044 28.1831L38.046 28.1871C37.984 28.4551 38.147 28.6771 38.411 28.7011L38.413 28.7061H38.437C38.61 28.7061 39.208 28.7061 39.493 28.7061H39.687L39.708 28.6991C39.979 28.6661 40.235 28.4461 40.292 28.1811L41.296 23.8541L41.349 23.4991L41.378 23.1671C41.379 22.5551 41.117 22.1021 40.594 21.8111ZM38.385 26.6831L38.162 26.9681L37.627 27.2451C37.373 27.3471 37.131 27.4001 36.912 27.4001C36.563 27.4001 36.305 27.3501 36.131 27.2501L35.863 26.7371C35.863 26.4571 35.928 26.2381 36.059 26.0651C36.192 25.9021 36.395 25.7681 36.647 25.6701C36.893 25.5861 37.197 25.5181 37.551 25.4671C37.863 25.4281 38.481 25.3551 38.561 25.3541L38.658 25.5211C38.644 25.6161 38.467 26.3491 38.385 26.6831Z" fill="#E9ECE0"/>
<path d="M33.969 20.635C33.797 20.302 33.539 20.033 33.213 19.823C32.879 19.615 32.483 19.469 32.02 19.385C31.565 19.304 31.022 19.26 30.405 19.259L27.534 19.261C27.235 19.266 26.948 19.498 26.879 19.783L24.948 28.189C24.878 28.474 25.07 28.71 25.362 28.71L26.737 28.708C27.029 28.71 27.328 28.476 27.397 28.188L27.862 26.147C27.93 25.863 28.225 25.624 28.522 25.626H28.915C30.596 25.626 31.899 25.28 32.837 24.595C33.764 23.902 34.233 22.995 34.233 21.868C34.228 21.377 34.143 20.962 33.969 20.635ZM31.008 23.384C30.594 23.682 30.016 23.834 29.276 23.834H28.934C28.639 23.837 28.448 23.597 28.514 23.311L28.93 21.53C28.991 21.245 29.289 21.006 29.586 21.009L30.031 21.006C30.559 21.009 30.955 21.096 31.225 21.272C31.494 21.448 31.621 21.724 31.624 22.09C31.627 22.648 31.42 23.078 31.008 23.384Z" fill="#E9ECE0"/>
<path d="M45.742 19.85C45.805 19.563 45.625 19.33 45.33 19.334H44.1C43.848 19.334 43.621 19.521 43.51 19.751L43.442 19.857L43.38 20.129L41.661 27.943L41.605 28.183L41.607 28.189C41.55 28.446 41.708 28.64 41.952 28.677L41.973 28.706H43.25C43.5 28.706 43.735 28.516 43.842 28.282L43.908 28.182L45.746 19.851L45.742 19.85Z" fill="#E9ECE0"/>
<path d="M24.986 21.472C24.661 21.476 23.34 21.472 23.34 21.472C23.044 21.472 22.664 21.711 22.476 21.996C22.476 21.996 20.51 25.37 20.319 25.709L20.091 25.706L19.479 22.019C19.411 21.729 19.108 21.481 18.731 21.481L17.501 21.483C17.205 21.483 17.023 21.719 17.09 22.007C17.09 22.007 18.024 27.322 18.211 28.573C18.298 29.263 18.2 29.386 18.2 29.386L16.984 31.504C16.804 31.792 16.901 32.027 17.196 32.027L18.618 32.025C18.914 32.025 19.303 31.792 19.479 31.503L24.949 22.251C24.949 22.252 25.475 21.461 24.986 21.472Z" fill="#E9ECE0"/>
</g>
<defs>
<clipPath id="clip0_2_1230">
<rect width="50.409" height="50.409" fill="white"/>
</clipPath>
</defs>
</svg>
