<svg width="50" height="50" viewBox="0 0 50 50" fill="none" xmlns="http://www.w3.org/2000/svg">
<g clip-path="url(#clip0_2_866)">
<path d="M25.0457 49.9996C38.8527 49.9996 50.0455 38.8068 50.0455 24.9998C50.0455 11.1928 38.8527 0 25.0457 0C11.2387 0 0.0458984 11.1928 0.0458984 24.9998C0.0458984 38.8068 11.2387 49.9996 25.0457 49.9996Z" fill="#5B6460"/>
<path d="M35.0459 19.0204C34.2735 19.3629 33.4426 19.5946 32.5712 19.698C33.4609 19.165 34.1437 18.3215 34.4659 17.3149C33.6334 17.8087 32.711 18.167 31.73 18.3601C30.9441 17.5231 29.8243 17 28.5844 17C26.2054 17 24.276 18.9295 24.276 21.3084C24.276 21.6461 24.3142 21.9748 24.3881 22.2903C20.8075 22.1107 17.6327 20.3956 15.5075 17.7882C15.1367 18.4244 14.924 19.165 14.924 19.9544C14.924 21.4488 15.6852 22.7681 16.8406 23.5405C16.1347 23.5184 15.4699 23.3246 14.8893 23.0011C14.889 23.0194 14.889 23.0377 14.889 23.0557C14.889 25.1432 16.3747 26.8844 18.3453 27.2799C17.9842 27.3789 17.6028 27.4312 17.2105 27.4312C16.9322 27.4312 16.6626 27.4046 16.3998 27.3544C16.9479 29.0657 18.5387 30.3114 20.4245 30.3465C18.9497 31.5022 17.0922 32.1908 15.0731 32.1908C14.7261 32.1908 14.3823 32.1705 14.0459 32.1304C15.9516 33.3533 18.2168 34.0662 20.6497 34.0662C28.5744 34.0662 32.9082 27.5013 32.9082 21.8074C32.9082 21.6207 32.9041 21.4347 32.8957 21.2503C33.7382 20.643 34.4685 19.8844 35.0459 19.0204Z" fill="#E9ECE0"/>
</g>
<defs>
<clipPath id="clip0_2_866">
<rect width="50" height="50" fill="white"/>
</clipPath>
</defs>
</svg>
