<svg width="125" height="100" viewBox="0 0 125 100" fill="none" xmlns="http://www.w3.org/2000/svg">
<path d="M57.0651 73.2289C55.6557 69.9558 54.0936 63.2782 49.2904 64.8883C44.9386 66.3471 42.6965 69.9713 43.3565 74.5908C44.1949 80.4584 47.3255 85.9081 50.8982 90.4946C53.6264 93.254 55.2707 94.3811 58.9555 96.658" stroke="#5B6460" stroke-linecap="round" stroke-linejoin="round"/>
<path d="M56.6869 73.2073C58.6156 68.3616 60.7572 64.2584 65.3258 61.6553C66.6589 60.8958 69.481 59.9578 71.0894 60.2361C72.8427 60.5394 74.7767 62.0387 75.5912 63.5133C76.7336 65.5815 77.2004 67.16 77.0261 69.5719C76.8303 72.2822 76.0004 74.8763 74.7784 77.2989C73.1415 80.544 70.61 83.4769 68.2746 86.2326C65.2559 89.7944 61.9404 93.0427 58.9841 96.655" stroke="#5B6460" stroke-linecap="round" stroke-linejoin="round"/>
<path d="M9.28969 2.64L10.1897 2.66C10.5497 2.66 10.8297 2.68 11.0297 2.72L11.5697 2.8C11.8497 2.84 12.0964 2.94 12.3097 3.1C12.203 3.66 11.763 3.94 10.9897 3.94L5.68969 3.78C5.11635 3.78 4.42969 3.80667 3.62969 3.86C3.65635 5.31333 3.66969 7.28 3.66969 9.76C5.18969 9.62667 6.45635 9.56 7.46969 9.56C9.42969 9.56 10.4097 9.75333 10.4097 10.14C10.4097 10.6333 10.103 10.88 9.48969 10.88C9.27635 10.88 9.04302 10.86 8.78969 10.82C7.77635 10.7 6.89635 10.64 6.14969 10.64C5.40302 10.64 4.56969 10.6933 3.64969 10.8C3.62302 11.24 3.58969 11.94 3.54969 12.9C3.50969 13.8467 3.47635 14.48 3.44969 14.8C3.43635 15.12 3.42302 15.3467 3.40969 15.48C3.39635 15.6133 3.37635 15.7733 3.34969 15.96C3.33635 16.1467 3.30969 16.3 3.26969 16.42C3.24302 16.54 3.20302 16.6667 3.14969 16.8C3.06969 17.0133 2.92302 17.1733 2.70969 17.28C2.64302 17.3067 2.58302 17.32 2.52969 17.32C2.35635 17.32 2.16302 17.2667 1.94969 17.16C1.94969 17.0133 1.94969 16.5933 1.94969 15.9C1.94969 15.2067 2.00969 13.7333 2.12969 11.48C2.24969 9.21333 2.30969 7.5 2.30969 6.34C2.30969 5.18 2.28302 4.24 2.22969 3.52C2.22969 3.2 2.55635 2.97333 3.20969 2.84C3.92969 2.69333 4.61635 2.62 5.26969 2.62C5.93635 2.60667 6.44302 2.6 6.78969 2.6L9.28969 2.64ZM14.8197 15.04L14.8797 16.18C14.8797 16.4733 14.793 16.68 14.6197 16.8C14.4597 16.9067 14.293 16.96 14.1197 16.96C13.9597 16.96 13.793 16.9333 13.6197 16.88C13.3264 15.3333 13.0997 13.4067 12.9397 11.1C12.793 8.79333 12.7064 7.48667 12.6797 7.18C12.8797 6.99333 13.0864 6.9 13.2997 6.9C13.5264 6.9 13.7264 6.92667 13.8997 6.98C13.953 7.36667 13.993 8.22 14.0197 9.54C14.0464 10.86 14.0797 11.6867 14.1197 12.02C14.3064 10.9 14.6397 9.85333 15.1197 8.88C15.3864 8.33333 15.733 7.9 16.1597 7.58C16.5997 7.24667 17.0664 7.08 17.5597 7.08C18.0664 7.08 18.5264 7.30667 18.9397 7.76C19.3664 8.2 19.5797 8.6 19.5797 8.96C19.5797 9.09333 19.4997 9.2 19.3397 9.28C19.1797 9.34667 18.9997 9.38 18.7997 9.38C18.613 9.38 18.4664 9.30667 18.3597 9.16C18.253 9.01333 18.1797 8.85333 18.1397 8.68C18.0997 8.49333 18.013 8.32667 17.8797 8.18C17.7464 8.03333 17.5664 7.96 17.3397 7.96C16.7397 7.96 16.2264 8.5 15.7997 9.58C15.1464 11.1933 14.8197 13.0133 14.8197 15.04ZM21.4303 8.7C22.1103 7.66 23.0903 7.14 24.3703 7.14C25.6503 7.14 26.6703 7.66 27.4303 8.7C28.2036 9.74 28.5903 10.9267 28.5903 12.26C28.5903 13.58 28.1703 14.7 27.3303 15.62C26.4903 16.54 25.4236 17 24.1303 17C22.837 17 21.897 16.64 21.3103 15.92C20.7236 15.1867 20.4303 14.16 20.4303 12.84C20.4303 11.12 20.7636 9.74 21.4303 8.7ZM22.3103 9.76C22.137 10.28 22.0036 10.8 21.9103 11.32C21.8303 11.84 21.7903 12.3267 21.7903 12.78C21.7903 13.22 21.8236 13.6267 21.8903 14C21.957 14.36 22.0703 14.72 22.2303 15.08C22.3903 15.4267 22.6303 15.7067 22.9503 15.92C23.2703 16.12 23.6503 16.22 24.0903 16.22C24.9836 16.22 25.7303 15.8533 26.3303 15.12C26.9436 14.3867 27.2503 13.5 27.2503 12.46C27.2503 11.42 26.9703 10.4133 26.4103 9.44C25.8636 8.45333 25.1903 7.96 24.3903 7.96C23.9103 7.96 23.4903 8.12667 23.1303 8.46C22.7703 8.79333 22.497 9.22667 22.3103 9.76ZM31.495 8.26C31.6417 8.26 31.715 9.14 31.715 10.9C31.715 11.18 31.7083 11.6267 31.695 12.24C31.695 12.8533 31.695 13.1733 31.695 13.2C31.8283 11.6933 31.9617 10.6667 32.095 10.12C32.2417 9.57333 32.3883 9.10667 32.535 8.72C32.6817 8.32 32.8417 8.01333 33.015 7.8C33.4417 7.25333 33.935 6.98 34.495 6.98C35.2017 6.98 35.7283 7.33333 36.075 8.04C36.435 8.74667 36.6217 9.68667 36.635 10.86C36.9683 8.44667 37.8483 7.24 39.275 7.24C39.8883 7.24 40.3217 7.55333 40.575 8.18C40.8283 8.80667 40.955 9.55333 40.955 10.42L40.895 13.46C40.895 15.46 41.3283 16.46 42.195 16.46L43.335 16.28C43.4017 16.28 43.4683 16.2867 43.535 16.3C43.4017 16.5 43.155 16.66 42.795 16.78C42.435 16.8867 42.0817 16.94 41.735 16.94C41.055 16.94 40.5417 16.64 40.195 16.04C39.8617 15.4267 39.6817 14.7867 39.655 14.12C39.6283 13.44 39.615 12.86 39.615 12.38L39.655 10.6C39.655 10.0133 39.615 9.45333 39.535 8.92C39.4683 8.38667 39.2817 8.12 38.975 8.12C38.5217 8.12 38.0817 9.07333 37.655 10.98C37.2417 12.8733 36.9883 14.6733 36.895 16.38C36.6683 16.62 36.3817 16.7467 36.035 16.76C35.9283 16.76 35.8283 16.74 35.735 16.7C35.615 16.0067 35.5483 14.8533 35.535 13.24C35.535 11.6133 35.455 10.32 35.295 9.36C35.135 8.4 34.775 7.92 34.215 7.92C33.8417 7.92 33.535 8.33333 33.295 9.16C32.9083 10.4533 32.5617 12.4667 32.255 15.2C32.175 15.84 32.115 16.3 32.075 16.58C31.795 16.82 31.5083 16.94 31.215 16.94L30.915 16.9C30.7283 14.6733 30.635 11.9133 30.635 8.62C30.7817 8.38 31.0683 8.26 31.495 8.26ZM52.5261 17.12L50.8661 17.18C49.9328 17.18 49.3261 17.0533 49.0461 16.8C48.8728 16.6667 48.7861 16.48 48.7861 16.24C48.7861 14.7333 48.8394 12.76 48.9461 10.32C49.0528 7.86667 49.1061 5.96 49.1061 4.6C49.1061 4.05333 49.6128 3.61333 50.6261 3.28C51.6394 2.94667 52.7261 2.78 53.8861 2.78C56.0594 2.78 57.8594 3.39333 59.2861 4.62C60.7261 5.84667 61.4461 7.44 61.4461 9.4C61.4461 10.3867 61.2728 11.3 60.9261 12.14C60.5928 12.98 60.1394 13.7067 59.5661 14.32C58.9928 14.92 58.3261 15.4333 57.5661 15.86C56.0461 16.7 54.3661 17.12 52.5261 17.12ZM60.0261 9.88C60.0261 8.16 59.4394 6.72 58.2661 5.56C57.1061 4.38667 55.5994 3.8 53.7461 3.8C52.8394 3.8 51.7594 4.1 50.5061 4.7C50.5061 5.78 50.4528 7.4 50.3461 9.56C50.2394 11.7067 50.1861 13.1933 50.1861 14.02C50.1861 14.8333 50.1928 15.4133 50.2061 15.76C50.9528 15.9067 51.7528 15.98 52.6061 15.98C54.7661 15.98 56.5394 15.4533 57.9261 14.4C59.3261 13.3467 60.0261 11.84 60.0261 9.88ZM64.407 12.94C64.3804 13.2067 64.367 13.3867 64.367 13.48C64.367 14.28 64.607 14.9 65.087 15.34C65.5804 15.78 66.1604 16 66.827 16C67.4937 16 68.0337 15.9067 68.447 15.72C68.8737 15.5333 69.1804 15.3333 69.367 15.12C69.847 14.52 70.287 14.22 70.687 14.22C70.8337 14.22 71.007 14.26 71.207 14.34C71.0737 14.9933 70.567 15.5933 69.687 16.14C68.8204 16.6733 67.727 16.94 66.407 16.94C65.4737 16.94 64.667 16.6467 63.987 16.06C63.3204 15.46 62.987 14.6467 62.987 13.62C62.987 12.5933 63.187 11.6 63.587 10.64C64.0004 9.66667 64.587 8.84 65.347 8.16C66.1204 7.46667 66.9004 7.12 67.687 7.12C68.487 7.12 69.127 7.28667 69.607 7.62C70.1004 7.94 70.347 8.41333 70.347 9.04C70.347 10.2 69.827 11.16 68.787 11.92C67.7604 12.6667 66.667 13.04 65.507 13.04C65.2004 13.04 64.8337 13.0067 64.407 12.94ZM65.927 12.28C66.5537 12.28 67.1137 12.08 67.607 11.68C68.1004 11.28 68.447 10.86 68.647 10.42C68.8604 9.98 68.967 9.58 68.967 9.22C68.967 8.86 68.827 8.54667 68.547 8.28C68.267 8 67.9404 7.86 67.567 7.86C66.9004 7.86 66.2804 8.32 65.707 9.24C65.147 10.16 64.747 11.1133 64.507 12.1C65.0937 12.22 65.567 12.28 65.927 12.28ZM81.0602 16.44C80.8202 16.6933 80.5468 16.82 80.2402 16.82C79.6668 16.82 79.2402 16.5133 78.9602 15.9C78.6802 15.2867 78.5135 14.54 78.4602 13.66C78.4202 12.78 78.3935 11.9 78.3802 11.02C78.3668 10.14 78.2935 9.39333 78.1602 8.78C78.0402 8.16667 77.8068 7.86 77.4602 7.86C76.9935 7.86 76.5935 8.28 76.2602 9.12C75.9402 9.96 75.7135 10.8933 75.5802 11.92C75.2068 14.7867 74.8468 16.3933 74.5002 16.74C74.2602 16.86 74.0535 16.92 73.8802 16.92C73.7068 16.92 73.5602 16.9 73.4402 16.86C73.1602 15.6333 72.9802 13.52 72.9002 10.52C72.8735 9.02667 72.8468 8.06 72.8202 7.62C73.1002 7.43333 73.3402 7.34 73.5402 7.34C73.7402 7.34 73.9002 7.36 74.0202 7.4C74.0868 7.97333 74.1202 9.14667 74.1202 10.92C74.1335 12.6933 74.1468 13.7133 74.1602 13.98C74.2268 13.7 74.3068 13.2467 74.4002 12.62C74.5068 11.9933 74.6002 11.48 74.6802 11.08C74.7602 10.6667 74.8868 10.1867 75.0602 9.64C75.2335 9.09333 75.4268 8.66 75.6402 8.34C75.8535 8.00667 76.1468 7.72667 76.5202 7.5C76.8935 7.26 77.3135 7.14 77.7802 7.14C78.4068 7.14 78.8602 7.42667 79.1402 8C79.4335 8.56 79.5935 9.26 79.6202 10.1C79.6468 10.94 79.6602 11.7933 79.6602 12.66C79.6735 13.5267 79.7802 14.32 79.9802 15.04C80.1935 15.76 80.5535 16.2267 81.0602 16.44ZM83.2919 8.26C83.4385 8.26 83.5119 9.14 83.5119 10.9C83.5119 11.18 83.5052 11.6267 83.4919 12.24C83.4919 12.8533 83.4919 13.1733 83.4919 13.2C83.6252 11.6933 83.7585 10.6667 83.8919 10.12C84.0385 9.57333 84.1852 9.10667 84.3319 8.72C84.4785 8.32 84.6385 8.01333 84.8119 7.8C85.2385 7.25333 85.7319 6.98 86.2919 6.98C86.9985 6.98 87.5252 7.33333 87.8719 8.04C88.2319 8.74667 88.4185 9.68667 88.4319 10.86C88.7652 8.44667 89.6452 7.24 91.0719 7.24C91.6852 7.24 92.1185 7.55333 92.3719 8.18C92.6252 8.80667 92.7519 9.55333 92.7519 10.42L92.6919 13.46C92.6919 15.46 93.1252 16.46 93.9919 16.46L95.1319 16.28C95.1985 16.28 95.2652 16.2867 95.3319 16.3C95.1985 16.5 94.9519 16.66 94.5919 16.78C94.2319 16.8867 93.8785 16.94 93.5319 16.94C92.8519 16.94 92.3385 16.64 91.9919 16.04C91.6585 15.4267 91.4785 14.7867 91.4519 14.12C91.4252 13.44 91.4119 12.86 91.4119 12.38L91.4519 10.6C91.4519 10.0133 91.4119 9.45333 91.3319 8.92C91.2652 8.38667 91.0785 8.12 90.7719 8.12C90.3185 8.12 89.8785 9.07333 89.4519 10.98C89.0385 12.8733 88.7852 14.6733 88.6919 16.38C88.4652 16.62 88.1785 16.7467 87.8319 16.76C87.7252 16.76 87.6252 16.74 87.5319 16.7C87.4119 16.0067 87.3452 14.8533 87.3319 13.24C87.3319 11.6133 87.2519 10.32 87.0919 9.36C86.9319 8.4 86.5719 7.92 86.0119 7.92C85.6385 7.92 85.3319 8.33333 85.0919 9.16C84.7052 10.4533 84.3585 12.4667 84.0519 15.2C83.9719 15.84 83.9119 16.3 83.8719 16.58C83.5919 16.82 83.3052 16.94 83.0119 16.94L82.7119 16.9C82.5252 14.6733 82.4319 11.9133 82.4319 8.62C82.5785 8.38 82.8652 8.26 83.2919 8.26ZM102.031 11.24L101.931 13.54C101.931 14.7 102.065 15.48 102.331 15.88C102.491 16.1467 102.711 16.28 102.991 16.28C103.071 16.28 103.185 16.26 103.331 16.22C103.611 16.14 103.845 16.18 104.031 16.34C103.938 16.8067 103.471 17.04 102.631 17.04C102.058 17.04 101.678 16.8 101.491 16.32C101.345 15.96 101.238 15.5133 101.171 14.98C101.105 14.4333 101.051 14.06 101.011 13.86C100.145 15.5133 99.3046 16.52 98.4913 16.88C98.0779 17.0667 97.5979 17.16 97.0513 17.16C96.5046 17.16 96.0779 16.9 95.7713 16.38C95.4779 15.8467 95.3313 15.0733 95.3313 14.06C95.3313 13.0467 95.4979 11.9867 95.8313 10.88C96.1646 9.76 96.6513 8.82 97.2913 8.06C97.9313 7.28667 98.6313 6.9 99.3913 6.9C100.485 6.9 101.211 7.35333 101.571 8.26C101.878 9.03333 102.031 10.0267 102.031 11.24ZM97.1313 10.6C96.9446 11.32 96.8046 12.0067 96.7113 12.66C96.6179 13.3 96.5713 13.8733 96.5713 14.38C96.5713 14.8733 96.6713 15.3 96.8713 15.66C97.0846 16.02 97.3579 16.2 97.6913 16.2C98.4113 16.2 99.1046 15.52 99.7713 14.16C100.438 12.8 100.771 11.5333 100.771 10.36C100.771 9.6 100.571 8.97333 100.171 8.48C99.9046 8.16 99.5513 8 99.1113 8C98.6846 8 98.2913 8.25333 97.9313 8.76C97.5846 9.25333 97.3179 9.86667 97.1313 10.6ZM106.656 15.04L106.716 16.18C106.716 16.4733 106.629 16.68 106.456 16.8C106.296 16.9067 106.129 16.96 105.956 16.96C105.796 16.96 105.629 16.9333 105.456 16.88C105.162 15.3333 104.936 13.4067 104.776 11.1C104.629 8.79333 104.542 7.48667 104.516 7.18C104.716 6.99333 104.922 6.9 105.136 6.9C105.362 6.9 105.562 6.92667 105.736 6.98C105.789 7.36667 105.829 8.22 105.856 9.54C105.882 10.86 105.916 11.6867 105.956 12.02C106.142 10.9 106.476 9.85333 106.956 8.88C107.222 8.33333 107.569 7.9 107.996 7.58C108.436 7.24667 108.902 7.08 109.396 7.08C109.902 7.08 110.362 7.30667 110.776 7.76C111.202 8.2 111.416 8.6 111.416 8.96C111.416 9.09333 111.336 9.2 111.176 9.28C111.016 9.34667 110.836 9.38 110.636 9.38C110.449 9.38 110.302 9.30667 110.196 9.16C110.089 9.01333 110.016 8.85333 109.976 8.68C109.936 8.49333 109.849 8.32667 109.716 8.18C109.582 8.03333 109.402 7.96 109.176 7.96C108.576 7.96 108.062 8.5 107.636 9.58C106.982 11.1933 106.656 13.0133 106.656 15.04ZM114.284 2.16C114.298 3.09333 114.304 3.79333 114.304 4.26C114.304 4.71333 114.298 5.16667 114.284 5.62C114.284 6.07333 114.264 6.95333 114.224 8.26C114.184 9.55333 114.158 10.58 114.144 11.34C114.651 10.9933 115.258 10.46 115.964 9.74C116.671 9.00667 117.311 8.38 117.884 7.86C118.791 7.04667 119.438 6.8 119.824 7.12C119.971 7.24 120.018 7.35333 119.964 7.46C119.831 7.74 119.524 8.08 119.044 8.48C118.578 8.88 118.024 9.33333 117.384 9.84C116.744 10.3467 116.238 10.8133 115.864 11.24C116.838 11.3733 117.618 11.92 118.204 12.88C118.458 13.32 118.704 13.76 118.944 14.2C119.558 15.36 120.224 16.1467 120.944 16.56C120.678 16.8267 120.371 16.96 120.024 16.96C119.678 16.96 119.331 16.7933 118.984 16.46C118.651 16.1267 118.358 15.72 118.104 15.24C117.864 14.76 117.618 14.28 117.364 13.8C116.791 12.64 116.124 12.06 115.364 12.06C115.004 12.06 114.698 12.18 114.444 12.42C114.191 12.6467 114.064 12.8867 114.064 13.14C114.064 14.74 114.038 15.9267 113.984 16.7C113.798 16.9533 113.598 17.08 113.384 17.08C113.318 17.08 113.244 17.0667 113.164 17.04C112.871 16.92 112.724 16.6733 112.724 16.3C112.738 15.9267 112.778 14.7933 112.844 12.9C112.991 8.06 113.064 4.96667 113.064 3.62C113.064 2.99333 113.124 2.57333 113.244 2.36C113.378 2.14667 113.531 2.04 113.704 2.04C113.891 2.04 114.084 2.08 114.284 2.16ZM122.198 17.44C122.198 17.32 122.178 17.1467 122.138 16.92C122.098 16.68 122.065 16.4667 122.038 16.28C122.025 16.0933 122.025 15.9067 122.038 15.72C122.065 15.3067 122.331 15.1 122.838 15.1C123.265 15.1 123.478 15.7333 123.478 17C123.478 19.1867 122.751 20.8333 121.298 21.94C121.138 22.0467 120.985 22.1 120.838 22.1C120.691 22.1 120.551 22.0667 120.418 22C120.285 21.9333 120.218 21.8467 120.218 21.74C120.218 21.6467 120.298 21.5333 120.458 21.4C121.618 20.5067 122.198 19.1867 122.198 17.44ZM20.0677 26.78C20.0277 27.1267 19.941 27.7267 19.8077 28.58C19.6877 29.4333 19.5943 30.1333 19.5277 30.68C19.3277 32.32 19.2277 33.6733 19.2277 34.74C19.2277 35.8067 19.261 36.64 19.3277 37.24C19.4077 37.8267 19.5277 38.3867 19.6877 38.92C19.8477 39.44 20.081 39.8533 20.3877 40.16C20.7077 40.4667 21.081 40.62 21.5077 40.62C22.121 40.62 22.661 40.2867 23.1277 39.62C23.6077 38.9533 23.981 38.1 24.2477 37.06C24.5143 36.0067 24.741 34.9467 24.9277 33.88C25.1277 32.8133 25.3143 31.7733 25.4877 30.76C25.6743 29.7467 25.8477 29.0533 26.0077 28.68C26.3677 28.44 26.641 28.32 26.8277 28.32C27.0143 28.32 27.1543 28.34 27.2477 28.38C27.3277 29.02 27.4077 30.1867 27.4877 31.88C27.581 33.56 27.701 34.8667 27.8477 35.8C28.0077 36.7333 28.2077 37.5267 28.4477 38.18C28.701 38.8333 29.0743 39.38 29.5677 39.82C30.061 40.2467 30.6277 40.46 31.2677 40.46C31.921 40.46 32.4543 40.16 32.8677 39.56C33.281 38.96 33.581 38.16 33.7677 37.16C34.101 35.3733 34.2677 33.5333 34.2677 31.64C34.2677 29.7333 34.1077 28.2467 33.7877 27.18C34.121 26.94 34.4277 26.82 34.7077 26.82C34.9877 26.82 35.2277 27.04 35.4277 27.48C35.6277 27.92 35.7677 28.48 35.8477 29.16C35.9943 30.3867 36.0677 31.5 36.0677 32.5C36.0677 33.5 35.9743 34.5067 35.7877 35.52C35.601 36.5333 35.3077 37.48 34.9077 38.36C34.521 39.2267 33.9743 39.92 33.2677 40.44C32.5743 40.9467 31.7677 41.2 30.8477 41.2C30.2343 41.1867 29.681 41.04 29.1877 40.76C28.7077 40.4667 28.321 40.1267 28.0277 39.74C27.7343 39.34 27.4677 38.82 27.2277 38.18C26.881 37.26 26.5877 36.0867 26.3477 34.66C25.7877 36.62 25.3143 37.9733 24.9277 38.72C23.981 40.52 22.681 41.4267 21.0277 41.44C19.961 41.44 19.161 41.0533 18.6277 40.28C18.161 39.5867 17.8677 38.6133 17.7477 37.36C17.7077 36.8267 17.6877 36.22 17.6877 35.54C17.6877 33.3133 18.0477 30.4733 18.7677 27.02C19.1143 26.82 19.3877 26.72 19.5877 26.72C19.801 26.72 19.961 26.74 20.0677 26.78ZM39.7289 26.28C39.7156 26.5867 39.7089 26.9267 39.7089 27.3C39.7089 27.6733 39.7289 28.06 39.7689 28.46C39.5822 28.6733 39.3289 28.78 39.0089 28.78C38.6089 28.78 38.4089 28.46 38.4089 27.82C38.4089 27.7933 38.4089 27.6933 38.4089 27.52C38.4089 27.3467 38.4089 27.1933 38.4089 27.06C38.4222 26.9133 38.4489 26.7467 38.4889 26.56C38.5822 26.24 38.7889 26.08 39.1089 26.08C39.4289 26.08 39.6356 26.1467 39.7289 26.28ZM38.4489 36.08C38.4489 33.4667 38.5822 31.96 38.8489 31.56C38.9422 31.4133 39.0556 31.34 39.1889 31.34C39.3222 31.34 39.5422 31.4133 39.8489 31.56C39.7822 32.6933 39.7489 33.9267 39.7489 35.26C39.7489 35.26 39.7622 36.7333 39.7889 39.68C39.7889 40.0933 39.6956 40.3867 39.5089 40.56C39.3356 40.72 39.1689 40.8 39.0089 40.8C38.8622 40.8 38.7089 40.76 38.5489 40.68C38.4822 38.9467 38.4489 37.4133 38.4489 36.08ZM42.3328 32.62C41.7328 32.62 41.3261 32.4733 41.1128 32.18C41.1128 31.9667 41.1995 31.8 41.3728 31.68C41.5595 31.56 41.7595 31.4867 41.9728 31.46C42.1861 31.42 42.5328 31.3867 43.0128 31.36C43.0528 31 43.0728 30.54 43.0728 29.98C43.0861 29.4067 43.0995 28.92 43.1128 28.52C43.1528 27.4667 43.3128 26.82 43.5928 26.58C43.7128 26.4733 43.8395 26.42 43.9728 26.42C44.1195 26.42 44.2461 26.4333 44.3528 26.46C44.3928 27.42 44.4128 28 44.4128 28.2L44.2928 31.2C44.3195 31.2133 44.3928 31.22 44.5128 31.22L45.9528 31.16C46.9928 31.16 47.5128 31.32 47.5128 31.64C47.5128 32.0933 47.3261 32.36 46.9528 32.44C46.7795 32.48 46.5728 32.5 46.3328 32.5C46.1061 32.5 45.8061 32.4733 45.4328 32.42C45.0728 32.3533 44.8128 32.32 44.6528 32.32C44.4928 32.32 44.3861 32.3267 44.3328 32.34C44.2928 32.7267 44.2728 33.1133 44.2728 33.5C44.2728 33.8733 44.2795 34.3467 44.2928 34.92C44.3195 35.48 44.3728 36.1533 44.4528 36.94C44.5461 37.7267 44.7395 38.4067 45.0328 38.98C45.3261 39.54 45.6995 39.82 46.1528 39.82C46.3795 39.82 46.6461 39.7333 46.9528 39.56C47.2595 39.3733 47.4928 39.28 47.6528 39.28C47.8261 39.28 47.9728 39.32 48.0928 39.4C48.2261 39.4667 48.2928 39.5467 48.2928 39.64C48.2928 39.92 48.0061 40.1933 47.4328 40.46C46.8728 40.7133 46.3928 40.84 45.9928 40.84C44.5261 40.84 43.6128 39.4533 43.2528 36.68C43.1461 35.88 43.0661 34.5067 43.0128 32.56C42.7995 32.6 42.5728 32.62 42.3328 32.62ZM49.6008 36.86L49.7808 27.9C49.7808 27.2067 49.7408 26.7333 49.6608 26.48C49.9008 26.2667 50.2674 26.16 50.7608 26.16C50.9608 27.5867 51.0608 29.42 51.0608 31.66C51.0608 32.3267 51.0008 33.8733 50.8808 36.3C51.5074 32.9267 52.6274 31.24 54.2408 31.24C54.8141 31.24 55.2541 31.5467 55.5608 32.16C55.8808 32.76 56.0808 33.4933 56.1608 34.36C56.2408 35.2267 56.3074 36.0933 56.3608 36.96C56.4941 39.04 56.8674 40.08 57.4808 40.08C57.4941 40.08 57.6208 40.04 57.8608 39.96C58.3941 39.8 58.6941 39.76 58.7608 39.84C58.7608 39.9867 58.5541 40.1733 58.1408 40.4C57.7274 40.6133 57.3474 40.72 57.0008 40.72C56.4141 40.72 55.9608 40.42 55.6408 39.82C55.3341 39.2067 55.1408 38.4667 55.0608 37.6C54.9941 36.7333 54.9408 35.8733 54.9008 35.02C54.8741 34.1533 54.7874 33.42 54.6408 32.82C54.4941 32.2067 54.2474 31.9 53.9008 31.9C53.4741 31.9 53.0808 32.3667 52.7208 33.3C52.3741 34.22 52.1008 35.24 51.9008 36.36C51.7008 37.48 51.4541 38.5067 51.1608 39.44C50.8808 40.36 50.5941 40.82 50.3008 40.82C49.8341 40.82 49.6008 39.5 49.6008 36.86ZM64.4181 29.04C64.4181 27.72 64.2381 26.8333 63.8781 26.38C64.0515 26.1267 64.3515 26 64.7781 26C64.8581 26 64.9448 26.0067 65.0381 26.02C65.3715 26.3533 65.5381 27.32 65.5381 28.92C65.5381 29.7867 65.4981 30.7933 65.4181 31.94C65.2581 33.94 65.1781 35.4067 65.1781 36.34C65.1781 38.86 65.6648 40.12 66.6381 40.12C66.6381 40.12 66.8848 40.0733 67.3781 39.98C67.4981 39.98 67.5981 40.0333 67.6781 40.14C67.6381 40.62 67.2448 40.86 66.4981 40.86C65.7648 40.86 65.1981 40.64 64.7981 40.2C64.3981 39.7467 64.1448 39.1867 64.0381 38.52C63.9448 37.84 63.8981 37.28 63.8981 36.84C63.8981 36.4 63.9048 35.92 63.9181 35.4C63.9315 34.8667 63.9915 34.1067 64.0981 33.12C64.3115 31.12 64.4181 29.76 64.4181 29.04ZM69.2038 32.7C69.8838 31.66 70.8638 31.14 72.1438 31.14C73.4238 31.14 74.4438 31.66 75.2038 32.7C75.9771 33.74 76.3638 34.9267 76.3638 36.26C76.3638 37.58 75.9438 38.7 75.1038 39.62C74.2638 40.54 73.1971 41 71.9038 41C70.6104 41 69.6704 40.64 69.0838 39.92C68.4971 39.1867 68.2038 38.16 68.2038 36.84C68.2038 35.12 68.5371 33.74 69.2038 32.7ZM70.0838 33.76C69.9104 34.28 69.7771 34.8 69.6838 35.32C69.6038 35.84 69.5638 36.3267 69.5638 36.78C69.5638 37.22 69.5971 37.6267 69.6638 38C69.7304 38.36 69.8438 38.72 70.0038 39.08C70.1638 39.4267 70.4038 39.7067 70.7238 39.92C71.0438 40.12 71.4238 40.22 71.8638 40.22C72.7571 40.22 73.5038 39.8533 74.1038 39.12C74.7171 38.3867 75.0238 37.5 75.0238 36.46C75.0238 35.42 74.7438 34.4133 74.1838 33.44C73.6371 32.4533 72.9638 31.96 72.1638 31.96C71.6838 31.96 71.2638 32.1267 70.9038 32.46C70.5438 32.7933 70.2704 33.2267 70.0838 33.76ZM77.3103 31.38C77.4303 31.1267 77.6903 31 78.0903 31C78.2636 31 78.4103 31.04 78.5303 31.12C78.9036 32.1467 79.2703 33.18 79.6303 34.22C80.3103 36.1267 80.9436 37.6333 81.5303 38.74C81.8103 37.1133 82.3503 35.4733 83.1503 33.82C83.9636 32.1667 84.7036 31.34 85.3703 31.34C85.5703 31.34 85.7703 31.3867 85.9703 31.48C84.437 33.4933 83.337 36.16 82.6703 39.48C82.537 40.2533 82.3903 40.6933 82.2303 40.8C82.057 40.92 81.877 40.98 81.6903 40.98C81.5036 40.98 81.357 40.94 81.2503 40.86C81.157 40.78 81.0836 40.7 81.0303 40.62C80.9903 40.54 80.9303 40.4067 80.8503 40.22C80.7836 40.0333 80.7303 39.9067 80.6903 39.84C79.3303 37.2933 78.2036 34.4733 77.3103 31.38ZM87.8641 36.94C87.8374 37.2067 87.8241 37.3867 87.8241 37.48C87.8241 38.28 88.0641 38.9 88.5441 39.34C89.0374 39.78 89.6174 40 90.2841 40C90.9507 40 91.4907 39.9067 91.9041 39.72C92.3307 39.5333 92.6374 39.3333 92.8241 39.12C93.3041 38.52 93.7441 38.22 94.1441 38.22C94.2907 38.22 94.4641 38.26 94.6641 38.34C94.5307 38.9933 94.0241 39.5933 93.1441 40.14C92.2774 40.6733 91.1841 40.94 89.8641 40.94C88.9307 40.94 88.1241 40.6467 87.4441 40.06C86.7774 39.46 86.4441 38.6467 86.4441 37.62C86.4441 36.5933 86.6441 35.6 87.0441 34.64C87.4574 33.6667 88.0441 32.84 88.8041 32.16C89.5774 31.4667 90.3574 31.12 91.1441 31.12C91.9441 31.12 92.5841 31.2867 93.0641 31.62C93.5574 31.94 93.8041 32.4133 93.8041 33.04C93.8041 34.2 93.2841 35.16 92.2441 35.92C91.2174 36.6667 90.1241 37.04 88.9641 37.04C88.6574 37.04 88.2907 37.0067 87.8641 36.94ZM89.3841 36.28C90.0107 36.28 90.5707 36.08 91.0641 35.68C91.5574 35.28 91.9041 34.86 92.1041 34.42C92.3174 33.98 92.4241 33.58 92.4241 33.22C92.4241 32.86 92.2841 32.5467 92.0041 32.28C91.7241 32 91.3974 31.86 91.0241 31.86C90.3574 31.86 89.7374 32.32 89.1641 33.24C88.6041 34.16 88.2041 35.1133 87.9641 36.1C88.5507 36.22 89.0241 36.28 89.3841 36.28ZM97.3172 41.6C97.0772 41.6 96.8172 41.5067 96.5372 41.32C96.2572 41.1467 96.1172 40.9333 96.1172 40.68C96.1172 40.4267 96.2639 40.1867 96.5572 39.96C96.8505 39.72 97.1505 39.6 97.4572 39.6C97.7639 39.6 98.0239 39.6867 98.2372 39.86C98.4505 40.0333 98.5572 40.2533 98.5572 40.52C98.5572 40.7733 98.4105 41.0133 98.1172 41.24C97.8372 41.48 97.5705 41.6 97.3172 41.6ZM101.829 41.6C101.589 41.6 101.329 41.5067 101.049 41.32C100.769 41.1467 100.629 40.9333 100.629 40.68C100.629 40.4267 100.776 40.1867 101.069 39.96C101.362 39.72 101.662 39.6 101.969 39.6C102.276 39.6 102.536 39.6867 102.749 39.86C102.962 40.0333 103.069 40.2533 103.069 40.52C103.069 40.7733 102.922 41.0133 102.629 41.24C102.349 41.48 102.082 41.6 101.829 41.6ZM106.341 41.6C106.101 41.6 105.841 41.5067 105.561 41.32C105.281 41.1467 105.141 40.9333 105.141 40.68C105.141 40.4267 105.287 40.1867 105.581 39.96C105.874 39.72 106.174 39.6 106.481 39.6C106.787 39.6 107.047 39.6867 107.261 39.86C107.474 40.0333 107.581 40.2533 107.581 40.52C107.581 40.7733 107.434 41.0133 107.141 41.24C106.861 41.48 106.594 41.6 106.341 41.6Z" fill="#5B6460"/>
</svg>
